<?xml version="1.0" encoding="UTF-8"?><svg xmlns="http://www.w3.org/2000/svg" xmlns:xlink="http://www.w3.org/1999/xlink" contentScriptType="text/ecmascript" width="375pt" zoomAndPan="magnify" contentStyleType="text/css" viewBox="0 0 375 374.999991" height="374.999991pt" preserveAspectRatio="xMidYMid meet" version="1.2"><defs><clipPath xml:id="clip1" id="clip1"><path d="M 105.265625 92.390625 L 255.265625 92.390625 L 255.265625 242.390625 L 105.265625 242.390625 Z M 105.265625 92.390625 "/></clipPath></defs><g xml:id="surface1" id="surface1"><g clip-rule="nonzero" clip-path="url(#clip1)"><path style=" stroke:none;fill-rule:nonzero;fill:rgb(18.818665%,41.178894%,58.81958%);fill-opacity:1;" d="M 255.265625 167.390625 C 255.265625 208.8125 221.6875 242.390625 180.265625 242.390625 C 138.84375 242.390625 105.265625 208.8125 105.265625 167.390625 C 105.265625 125.96875 138.84375 92.390625 180.265625 92.390625 C 221.6875 92.390625 255.265625 125.96875 255.265625 167.390625 "/></g><path style=" stroke:none;fill-rule:nonzero;fill:rgb(100%,100%,100%);fill-opacity:1;" d="M 209.753906 207.707031 L 207.105469 207.707031 C 206.726562 210.320312 205.707031 212.777344 204.128906 214.898438 L 206 216.769531 C 206.914062 217.683594 206.914062 219.167969 206 220.082031 C 205.542969 220.539062 204.941406 220.769531 204.34375 220.769531 C 203.742188 220.769531 203.144531 220.539062 202.6875 220.082031 L 199.277344 216.671875 C 198.363281 215.757812 198.363281 214.277344 199.277344 213.359375 C 199.277344 213.359375 199.28125 213.359375 199.28125 213.359375 C 201.414062 211.222656 202.59375 208.382812 202.59375 205.363281 C 202.59375 204.070312 203.640625 203.019531 204.933594 203.019531 L 209.753906 203.019531 C 211.046875 203.019531 212.097656 204.070312 212.097656 205.363281 C 212.097656 206.65625 211.046875 207.707031 209.753906 207.707031 Z M 196.09375 220.621094 C 195.289062 220.875 194.460938 221.0625 193.625 221.1875 L 193.625 223.835938 C 193.625 225.128906 192.574219 226.179688 191.28125 226.179688 C 189.988281 226.179688 188.9375 225.128906 188.9375 223.835938 L 188.9375 221.1875 C 188.089844 221.0625 187.25 220.871094 186.429688 220.609375 C 185.199219 220.21875 184.515625 218.898438 184.90625 217.667969 C 185.300781 216.433594 186.617188 215.753906 187.851562 216.144531 C 190.050781 216.84375 192.484375 216.847656 194.6875 216.152344 C 195.921875 215.761719 197.238281 216.449219 197.625 217.683594 C 198.015625 218.917969 197.328125 220.230469 196.09375 220.621094 Z M 183.285156 216.675781 C 183.28125 216.679688 183.273438 216.683594 183.265625 216.691406 L 179.875 220.082031 C 179.417969 220.539062 178.820312 220.769531 178.21875 220.769531 C 177.621094 220.769531 177.019531 220.539062 176.5625 220.082031 C 175.648438 219.167969 175.648438 217.683594 176.5625 216.769531 L 178.433594 214.898438 C 176.855469 212.777344 175.835938 210.320312 175.457031 207.707031 L 172.808594 207.707031 C 171.515625 207.707031 170.464844 206.65625 170.464844 205.363281 C 170.464844 204.070312 171.515625 203.019531 172.808594 203.019531 L 175.457031 203.019531 C 175.835938 200.40625 176.855469 197.945312 178.433594 195.828125 L 176.5625 193.957031 C 175.648438 193.042969 175.648438 191.558594 176.5625 190.644531 C 177.476562 189.730469 178.960938 189.730469 179.875 190.644531 L 183.28125 194.050781 C 183.28125 194.050781 183.28125 194.050781 183.285156 194.050781 C 184.199219 194.96875 184.199219 196.449219 183.285156 197.367188 C 181.148438 199.5 179.972656 202.34375 179.972656 205.363281 C 179.972656 208.382812 181.148438 211.222656 183.285156 213.363281 C 184.199219 214.277344 184.199219 215.757812 183.285156 216.675781 Z M 185.375 205.363281 C 187.078125 205.363281 188.460938 206.742188 188.460938 208.449219 C 188.460938 210.152344 187.078125 211.535156 185.375 211.535156 C 183.671875 211.535156 182.289062 210.152344 182.289062 208.449219 C 182.289062 206.742188 183.671875 205.363281 185.375 205.363281 Z M 194.03125 202.679688 C 194.03125 200.976562 195.414062 199.59375 197.117188 199.59375 C 198.820312 199.59375 200.203125 200.976562 200.203125 202.679688 C 200.203125 204.382812 198.820312 205.765625 197.117188 205.765625 C 195.414062 205.765625 194.03125 204.382812 194.03125 202.679688 Z M 188.460938 202.679688 C 186.753906 202.679688 185.375 201.296875 185.375 199.59375 C 185.375 197.890625 186.753906 196.511719 188.460938 196.511719 C 190.164062 196.511719 191.542969 197.890625 191.542969 199.59375 C 191.542969 201.296875 190.164062 202.679688 188.460938 202.679688 Z M 194.03125 207.871094 C 195.738281 207.871094 197.117188 209.25 197.117188 210.957031 C 197.117188 212.660156 195.738281 214.042969 194.03125 214.042969 C 192.328125 214.042969 190.949219 212.660156 190.949219 210.957031 C 190.949219 209.25 192.328125 207.871094 194.03125 207.871094 Z M 186.738281 190.023438 C 187.457031 189.808594 188.195312 189.648438 188.9375 189.539062 L 188.9375 186.890625 C 188.9375 185.597656 189.988281 184.546875 191.28125 184.546875 C 192.574219 184.546875 193.625 185.597656 193.625 186.890625 L 193.625 189.539062 C 196.238281 189.917969 198.695312 190.9375 200.816406 192.515625 L 202.6875 190.644531 C 203.601562 189.730469 205.085938 189.730469 206 190.644531 C 206.914062 191.558594 206.914062 193.042969 206 193.957031 L 204.125 195.835938 C 204.5 196.339844 204.851562 196.867188 205.167969 197.414062 C 205.808594 198.539062 205.421875 199.96875 204.300781 200.613281 C 203.933594 200.824219 203.53125 200.925781 203.136719 200.925781 C 202.324219 200.925781 201.535156 200.5 201.101562 199.746094 C 200.601562 198.878906 199.988281 198.074219 199.277344 197.363281 C 197.140625 195.230469 194.300781 194.050781 191.28125 194.050781 C 190.1875 194.050781 189.105469 194.207031 188.066406 194.515625 C 186.824219 194.882812 185.519531 194.175781 185.15625 192.933594 C 184.789062 191.691406 185.496094 190.390625 186.738281 190.023438 Z M 204.949219 184.765625 C 204.242188 184.296875 203.820312 183.507812 203.820312 182.660156 L 203.820312 133.707031 L 198.253906 133.707031 C 196.859375 133.707031 195.734375 132.578125 195.734375 131.1875 C 195.734375 129.796875 196.859375 128.667969 198.253906 128.667969 L 203.820312 128.667969 L 203.820312 111.972656 L 178.742188 111.972656 L 178.742188 182.660156 C 178.742188 183.507812 178.320312 184.296875 177.613281 184.765625 C 170.636719 189.378906 166.46875 197.121094 166.46875 205.476562 C 166.46875 219.15625 177.597656 230.289062 191.28125 230.289062 C 204.964844 230.289062 216.09375 219.15625 216.09375 205.476562 C 216.09375 197.121094 211.929688 189.378906 204.949219 184.765625 "/><path style=" stroke:none;fill-rule:nonzero;fill:rgb(100%,100%,100%);fill-opacity:1;" d="M 157.023438 184.460938 C 158.007812 185.445312 158.007812 187.042969 157.023438 188.027344 C 156.53125 188.519531 155.886719 188.761719 155.242188 188.761719 C 154.59375 188.761719 153.949219 188.519531 153.457031 188.027344 L 149.5625 184.128906 L 145.664062 188.027344 C 145.171875 188.519531 144.527344 188.761719 143.882812 188.761719 C 143.238281 188.761719 142.59375 188.519531 142.101562 188.027344 C 141.117188 187.042969 141.117188 185.445312 142.101562 184.460938 L 145.996094 180.5625 L 142.101562 176.667969 C 141.117188 175.683594 141.117188 174.085938 142.101562 173.101562 C 143.085938 172.117188 144.679688 172.117188 145.664062 173.101562 L 149.5625 177 L 153.457031 173.101562 C 154.441406 172.117188 156.039062 172.117188 157.023438 173.101562 C 158.007812 174.085938 158.007812 175.683594 157.023438 176.667969 L 153.125 180.5625 Z M 137.453125 168.367188 L 137.453125 192.699219 L 161.785156 192.699219 L 161.785156 168.367188 L 137.453125 168.367188 "/><path style=" stroke:none;fill-rule:nonzero;fill:rgb(100%,100%,100%);fill-opacity:1;" d="M 157.023438 148.875 C 158.007812 149.859375 158.007812 151.457031 157.023438 152.441406 C 156.53125 152.933594 155.886719 153.179688 155.242188 153.179688 C 154.59375 153.179688 153.949219 152.933594 153.457031 152.441406 L 149.5625 148.542969 L 145.664062 152.441406 C 145.171875 152.933594 144.527344 153.179688 143.882812 153.179688 C 143.238281 153.179688 142.59375 152.933594 142.101562 152.441406 C 141.117188 151.457031 141.117188 149.859375 142.101562 148.875 L 145.996094 144.980469 L 142.101562 141.082031 C 141.117188 140.097656 141.117188 138.5 142.101562 137.519531 C 143.085938 136.535156 144.679688 136.535156 145.664062 137.519531 L 149.5625 141.414062 L 153.457031 137.519531 C 154.441406 136.535156 156.039062 136.535156 157.023438 137.519531 C 158.007812 138.5 158.007812 140.097656 157.023438 141.082031 L 153.125 144.980469 Z M 137.453125 132.78125 L 137.453125 157.113281 L 161.785156 157.113281 L 161.785156 132.78125 L 137.453125 132.78125 "/></g></svg>