<?xml version="1.0" encoding="UTF-8"?><svg xmlns="http://www.w3.org/2000/svg" xmlns:xlink="http://www.w3.org/1999/xlink" contentScriptType="text/ecmascript" width="375pt" zoomAndPan="magnify" contentStyleType="text/css" viewBox="0 0 375 374.999991" height="374.999991pt" preserveAspectRatio="xMidYMid meet" version="1.2"><defs><clipPath xml:id="clip1" id="clip1"><path d="M 27 45 L 325.835938 45 L 325.835938 327.832031 L 27 327.832031 Z M 27 45 "/></clipPath></defs><g xml:id="surface1" id="surface1"><g clip-rule="nonzero" clip-path="url(#clip1)"><path style=" stroke:none;fill-rule:nonzero;fill:rgb(23.919678%,59.609985%,60.778809%);fill-opacity:1;" d="M 325.03125 206.148438 C 324.261719 213.523438 320.734375 219.199219 317.152344 218.820312 C 316.195312 218.71875 315.332031 218.183594 314.59375 217.332031 L 314.59375 217.34375 C 294.460938 200.488281 273.84375 218.507812 273.84375 218.507812 C 273.804688 218.460938 273.773438 218.410156 273.734375 218.363281 C 270.632812 227.929688 266.167969 236.875 260.566406 244.972656 C 264.851562 249.796875 271.234375 253.777344 280.710938 254.394531 L 280.707031 254.402344 C 281.828125 254.292969 282.820312 254.503906 283.582031 255.09375 C 286.4375 257.296875 285.105469 263.847656 280.601562 269.730469 C 276.101562 275.609375 270.136719 278.585938 267.28125 276.382812 C 266.515625 275.792969 266.0625 274.886719 265.878906 273.769531 L 265.871094 273.78125 C 262.785156 264.574219 257.164062 259.382812 251.300781 256.492188 C 245.589844 262.632812 239.140625 268.066406 232.089844 272.648438 C 230.996094 275.4375 222.789062 298.460938 243.570312 311.675781 L 243.5625 311.679688 C 244.597656 312.121094 245.371094 312.78125 245.757812 313.667969 C 247.210938 316.976562 242.914062 322.085938 236.15625 325.078125 C 229.398438 328.070312 222.742188 327.816406 221.285156 324.507812 C 220.898438 323.621094 220.933594 322.605469 221.304688 321.539062 L 221.292969 321.542969 C 225.863281 295.625 200.042969 286.613281 200.042969 286.613281 C 200.082031 286.507812 200.132812 286.40625 200.175781 286.300781 C 192.660156 288.074219 184.824219 289.015625 176.769531 289.015625 C 169.628906 289.015625 162.660156 288.273438 155.933594 286.871094 C 154.65625 291.480469 154.46875 296.890625 156.230469 303.144531 L 156.222656 303.140625 C 156.699219 304.164062 156.832031 305.171875 156.535156 306.09375 C 155.417969 309.53125 148.820312 310.457031 141.796875 308.15625 C 134.777344 305.855469 129.988281 301.207031 131.105469 297.769531 C 131.402344 296.847656 132.105469 296.113281 133.089844 295.570312 L 133.078125 295.566406 C 137.964844 291.71875 140.949219 287.433594 142.664062 283.136719 C 135.363281 280.539062 128.441406 277.128906 122.015625 273.011719 C 119.425781 273.046875 94.667969 274.023438 90.414062 298.59375 L 90.40625 298.585938 C 90.394531 299.71875 90.082031 300.683594 89.414062 301.382812 C 86.925781 303.996094 80.582031 301.964844 75.242188 296.839844 C 69.902344 291.714844 67.589844 285.441406 70.078125 282.828125 C 70.746094 282.128906 71.695312 281.769531 72.820312 281.707031 L 72.808594 281.699219 C 94.703125 276.847656 96.714844 256.101562 96.839844 250.203125 C 92.9375 245.261719 89.480469 239.949219 86.53125 234.328125 C 82.652344 236.425781 78.90625 239.683594 75.691406 244.609375 L 75.6875 244.601562 C 75.226562 245.632812 74.558594 246.398438 73.671875 246.773438 C 70.355469 248.183594 65.332031 243.785156 62.457031 236.957031 C 59.582031 230.125 59.9375 223.445312 63.253906 222.039062 C 64.144531 221.660156 65.15625 221.710938 66.214844 222.101562 L 66.207031 222.089844 C 71.867188 223.1875 76.730469 222.796875 80.882812 221.519531 C 77.519531 212.203125 75.460938 202.257812 74.9375 191.902344 C 74.371094 191.140625 58.402344 169.984375 35.472656 181.734375 L 35.476562 181.726562 C 34.566406 182.394531 33.609375 182.726562 32.652344 182.609375 C 29.074219 182.179688 26.886719 175.863281 27.761719 168.5 C 28.636719 161.136719 32.246094 155.515625 35.820312 155.945312 C 36.777344 156.058594 37.632812 156.605469 38.359375 157.472656 L 38.359375 157.457031 C 58.25 174.605469 79.121094 156.886719 79.121094 156.886719 C 79.136719 156.90625 79.152344 156.929688 79.167969 156.949219 C 82.496094 145.902344 87.636719 135.644531 94.238281 126.523438 C 90.320312 122.988281 84.976562 120.230469 77.683594 119.386719 L 77.691406 119.378906 C 76.566406 119.429688 75.585938 119.175781 74.851562 118.546875 C 72.109375 116.203125 73.769531 109.722656 78.558594 104.078125 C 83.347656 98.433594 89.453125 95.757812 92.195312 98.101562 C 92.929688 98.730469 93.339844 99.660156 93.464844 100.785156 L 93.472656 100.773438 C 95.445312 107.804688 98.960938 112.636719 103.011719 115.957031 C 108.941406 109.722656 115.644531 104.246094 122.96875 99.671875 C 124.132812 96.914062 132.933594 74.109375 112.5 60.359375 L 112.507812 60.355469 C 111.484375 59.882812 110.730469 59.203125 110.363281 58.308594 C 108.996094 54.964844 113.425781 49.96875 120.257812 47.152344 C 127.09375 44.335938 133.742188 44.765625 135.109375 48.109375 C 135.472656 49.003906 135.414062 50.019531 135.015625 51.078125 L 135.027344 51.074219 C 129.867188 76.46875 154.589844 86.246094 155.347656 86.539062 C 162.253906 85.054688 169.421875 84.265625 176.769531 84.265625 C 185.976562 84.265625 194.890625 85.5 203.375 87.796875 C 204.191406 83.304688 203.953125 78.160156 201.941406 72.375 L 201.953125 72.378906 C 201.414062 71.382812 201.21875 70.386719 201.460938 69.449219 C 202.367188 65.949219 208.898438 64.628906 216.046875 66.5 C 223.195312 68.367188 228.253906 72.722656 227.34375 76.21875 C 227.101562 77.15625 226.445312 77.929688 225.492188 78.535156 L 225.507812 78.539062 C 220.582031 82.921875 217.820312 87.660156 216.441406 92.304688 C 223.757812 95.410156 230.632812 99.355469 236.960938 104.007812 C 244.527344 102.613281 261.257812 97.261719 263.574219 77.125 L 263.582031 77.128906 C 263.53125 76 263.785156 75.015625 264.410156 74.28125 C 266.746094 71.527344 273.199219 73.195312 278.820312 78.003906 C 284.445312 82.8125 287.109375 88.945312 284.773438 91.695312 C 284.148438 92.433594 283.21875 92.84375 282.101562 92.972656 L 282.109375 92.980469 C 256.875 100.113281 260.011719 127.375 260.011719 127.375 C 259.984375 127.378906 259.953125 127.378906 259.921875 127.378906 C 263.121094 131.894531 265.960938 136.6875 268.40625 141.707031 C 273.265625 139.9375 278.125 136.597656 282.289062 130.738281 L 282.292969 130.746094 C 282.792969 129.730469 283.488281 128.996094 284.390625 128.65625 C 287.761719 127.378906 292.605469 131.972656 295.210938 138.910156 C 297.8125 145.851562 297.191406 152.511719 293.820312 153.785156 C 292.917969 154.128906 291.910156 154.035156 290.871094 153.605469 L 290.875 153.617188 C 284.0625 152.011719 278.328125 152.644531 273.582031 154.4375 C 276.742188 164.023438 278.53125 174.234375 278.710938 184.84375 C 282.898438 189.507812 297.632812 203.375 317.128906 193.027344 L 317.128906 193.035156 C 318.027344 192.355469 318.980469 192.011719 319.9375 192.109375 C 323.519531 192.488281 325.800781 198.773438 325.03125 206.148438 Z M 325.03125 206.148438 "/></g><path style=" stroke:none;fill-rule:nonzero;fill:rgb(14.118958%,10.5896%,7.839966%);fill-opacity:1;" d="M 179.09375 171.667969 C 170.867188 171.667969 164.175781 178.382812 164.175781 186.640625 C 164.175781 194.898438 170.867188 201.617188 179.09375 201.617188 C 187.316406 201.617188 194.007812 194.898438 194.007812 186.640625 C 194.007812 178.382812 187.316406 171.667969 179.09375 171.667969 Z M 179.09375 200.964844 C 171.226562 200.964844 164.824219 194.539062 164.824219 186.640625 C 164.824219 178.742188 171.226562 172.316406 179.09375 172.316406 C 186.957031 172.316406 193.355469 178.742188 193.355469 186.640625 C 193.355469 194.539062 186.957031 200.964844 179.09375 200.964844 Z M 74.640625 118.792969 C 74.503906 118.675781 74.488281 118.472656 74.601562 118.335938 C 74.71875 118.199219 74.925781 118.183594 75.0625 118.296875 C 77.664062 120.523438 83.574219 117.859375 88.238281 112.359375 C 90.527344 109.664062 92.164062 106.703125 92.851562 104.015625 C 93.519531 101.410156 93.210938 99.398438 91.984375 98.351562 C 91.847656 98.234375 91.832031 98.027344 91.949219 97.890625 C 92.0625 97.753906 92.269531 97.738281 92.40625 97.851562 C 93.832031 99.074219 94.214844 101.320312 93.480469 104.179688 C 92.769531 106.957031 91.082031 110.011719 88.734375 112.78125 C 85.066406 117.105469 80.597656 119.703125 77.378906 119.703125 C 76.300781 119.703125 75.363281 119.410156 74.640625 118.792969 Z M 102.808594 116.210938 C 102.667969 116.097656 102.648438 115.890625 102.761719 115.753906 C 102.875 115.613281 103.078125 115.59375 103.21875 115.707031 C 113.53125 124.160156 127.554688 122.648438 127.695312 122.632812 C 127.875 122.613281 128.035156 122.738281 128.058594 122.917969 C 128.078125 123.097656 127.949219 123.257812 127.773438 123.28125 C 127.734375 123.285156 126.691406 123.398438 124.980469 123.398438 C 120.277344 123.398438 110.53125 122.542969 102.808594 116.210938 Z M 94.019531 126.761719 C 93.886719 126.640625 93.875 126.433594 93.992188 126.300781 C 94.113281 126.167969 94.320312 126.15625 94.453125 126.277344 C 104.511719 135.347656 105.261719 149.664062 105.265625 149.804688 C 105.277344 149.988281 105.136719 150.136719 104.957031 150.144531 C 104.953125 150.148438 104.949219 150.148438 104.945312 150.148438 C 104.769531 150.148438 104.628906 150.011719 104.621094 149.835938 C 104.613281 149.695312 103.871094 135.644531 94.019531 126.761719 Z M 74.769531 231.730469 C 77.710938 238.714844 77.273438 245.597656 73.796875 247.074219 C 73.757812 247.09375 73.714844 247.101562 73.671875 247.101562 C 73.546875 247.101562 73.425781 247.027344 73.371094 246.902344 C 73.304688 246.734375 73.378906 246.542969 73.546875 246.472656 C 76.691406 245.136719 76.972656 238.636719 74.171875 231.984375 C 71.367188 225.328125 66.53125 221.003906 63.382812 222.339844 C 63.21875 222.40625 63.027344 222.332031 62.957031 222.164062 C 62.886719 222 62.964844 221.808594 63.128906 221.738281 C 66.609375 220.261719 71.828125 224.746094 74.769531 231.730469 Z M 80.972656 221.835938 C 80.941406 221.84375 80.910156 221.847656 80.878906 221.847656 C 80.738281 221.847656 80.613281 221.757812 80.566406 221.617188 C 80.515625 221.445312 80.613281 221.261719 80.785156 221.210938 C 95.191406 216.785156 100.960938 201.34375 101.019531 201.1875 C 101.082031 201.019531 101.265625 200.933594 101.433594 200.996094 C 101.601562 201.054688 101.691406 201.242188 101.628906 201.414062 C 101.570312 201.570312 95.695312 217.3125 80.972656 221.835938 Z M 86.675781 234.613281 C 86.625 234.640625 86.574219 234.652344 86.519531 234.652344 C 86.40625 234.652344 86.292969 234.59375 86.234375 234.480469 C 86.148438 234.324219 86.207031 234.125 86.367188 234.039062 C 99.804688 226.769531 114.992188 233.4375 115.144531 233.507812 C 115.308594 233.582031 115.378906 233.773438 115.308594 233.9375 C 115.234375 234.101562 115.042969 234.175781 114.878906 234.101562 C 114.730469 234.035156 99.824219 227.496094 86.675781 234.613281 Z M 142.359375 283.023438 C 147.757812 269.488281 140.265625 255.609375 140.1875 255.472656 C 140.101562 255.3125 140.160156 255.117188 140.316406 255.027344 C 140.472656 254.941406 140.671875 254.996094 140.757812 255.15625 C 140.835938 255.296875 148.480469 269.4375 142.960938 283.265625 C 142.910156 283.394531 142.789062 283.472656 142.660156 283.472656 C 142.621094 283.472656 142.582031 283.464844 142.542969 283.449219 C 142.375 283.382812 142.292969 283.191406 142.359375 283.023438 Z M 174.183594 266.117188 C 174.257812 266.28125 174.1875 266.472656 174.027344 266.546875 C 173.886719 266.613281 160.050781 273.214844 156.242188 286.960938 C 156.203125 287.105469 156.074219 287.199219 155.929688 287.199219 C 155.902344 287.199219 155.875 287.195312 155.84375 287.1875 C 155.671875 287.140625 155.570312 286.960938 155.617188 286.785156 C 159.507812 272.742188 173.609375 266.023438 173.753906 265.957031 C 173.914062 265.882812 174.109375 265.953125 174.183594 266.117188 Z M 156.84375 306.195312 C 156.796875 306.332031 156.671875 306.417969 156.535156 306.417969 C 156.5 306.417969 156.46875 306.414062 156.433594 306.402344 C 156.261719 306.347656 156.171875 306.164062 156.226562 305.992188 C 157.285156 302.730469 152.582031 298.253906 145.738281 296.015625 C 138.898438 293.777344 132.472656 294.609375 131.414062 297.871094 C 131.355469 298.042969 131.171875 298.132812 131.003906 298.078125 C 130.832031 298.023438 130.738281 297.839844 130.792969 297.667969 C 131.984375 294.003906 138.636719 293.003906 145.941406 295.398438 C 153.121094 297.746094 158.011719 302.589844 156.84375 306.195312 Z M 251.601562 256.636719 C 251.542969 256.753906 251.429688 256.820312 251.308594 256.820312 C 251.261719 256.820312 251.210938 256.808594 251.164062 256.789062 C 241.347656 251.945312 230.707031 253.652344 230.597656 253.671875 C 230.425781 253.703125 230.253906 253.582031 230.226562 253.402344 C 230.195312 253.226562 230.316406 253.058594 230.492188 253.027344 C 230.601562 253.011719 241.449219 251.269531 251.453125 256.203125 C 251.613281 256.28125 251.679688 256.476562 251.601562 256.636719 Z M 260.8125 244.761719 C 260.929688 244.898438 260.917969 245.101562 260.785156 245.222656 C 260.722656 245.277344 260.644531 245.304688 260.570312 245.304688 C 260.480469 245.304688 260.390625 245.269531 260.328125 245.195312 C 252.792969 236.722656 251.65625 225.515625 251.644531 225.402344 C 251.628906 225.222656 251.757812 225.0625 251.9375 225.046875 C 252.109375 225.039062 252.273438 225.160156 252.289062 225.339844 C 252.300781 225.449219 253.421875 236.453125 260.8125 244.761719 Z M 283.78125 254.835938 C 283.921875 254.945312 283.949219 255.148438 283.839844 255.292969 C 283.730469 255.433594 283.527344 255.460938 283.386719 255.351562 C 282.109375 254.363281 280.082031 254.480469 277.683594 255.679688 C 275.210938 256.917969 272.667969 259.140625 270.519531 261.945312 C 266.132812 267.675781 264.769531 274.035156 267.480469 276.125 C 267.621094 276.234375 267.648438 276.441406 267.539062 276.582031 C 267.476562 276.667969 267.378906 276.710938 267.28125 276.710938 C 267.210938 276.710938 267.144531 276.6875 267.082031 276.644531 C 264.089844 274.332031 265.402344 267.5625 270.003906 261.550781 C 272.210938 258.667969 274.835938 256.375 277.394531 255.097656 C 280.027344 253.78125 282.296875 253.6875 283.78125 254.835938 Z M 273.699219 154.738281 C 260.949219 159.542969 255.320312 172.980469 255.265625 173.113281 C 255.214844 173.238281 255.09375 173.316406 254.964844 173.316406 C 254.921875 173.316406 254.882812 173.308594 254.839844 173.292969 C 254.675781 173.222656 254.597656 173.035156 254.664062 172.867188 C 254.71875 172.730469 260.453125 159.035156 273.472656 154.128906 C 273.636719 154.0625 273.828125 154.148438 273.890625 154.316406 C 273.953125 154.488281 273.867188 154.675781 273.699219 154.738281 Z M 268.300781 141.402344 C 268.46875 141.339844 268.65625 141.425781 268.71875 141.597656 C 268.78125 141.765625 268.691406 141.953125 268.523438 142.011719 C 265.0625 143.273438 261.589844 143.734375 258.355469 143.734375 C 249.542969 143.734375 242.523438 140.308594 242.429688 140.257812 C 242.265625 140.179688 242.203125 139.984375 242.28125 139.824219 C 242.359375 139.660156 242.558594 139.597656 242.714844 139.675781 C 242.84375 139.738281 255.671875 145.996094 268.300781 141.402344 Z M 293.9375 154.089844 C 293.53125 154.246094 293.105469 154.320312 292.664062 154.320312 C 289.277344 154.320312 285.058594 149.925781 282.699219 143.644531 C 281.425781 140.242188 280.867188 136.792969 281.132812 133.9375 C 281.410156 130.996094 282.523438 129.011719 284.277344 128.351562 C 284.445312 128.285156 284.632812 128.371094 284.695312 128.539062 C 284.757812 128.707031 284.675781 128.894531 284.507812 128.960938 C 283 129.53125 282.03125 131.320312 281.78125 133.996094 C 281.523438 136.757812 282.066406 140.101562 283.308594 143.414062 C 285.84375 150.171875 290.507812 154.691406 293.707031 153.480469 C 293.875 153.417969 294.0625 153.503906 294.125 153.671875 C 294.1875 153.839844 294.105469 154.027344 293.9375 154.089844 Z M 220.269531 119.339844 C 220.1875 119.207031 212.015625 106.054688 216.128906 92.210938 C 216.179688 92.039062 216.359375 91.941406 216.53125 91.992188 C 216.703125 92.042969 216.800781 92.226562 216.75 92.398438 C 212.722656 105.953125 220.734375 118.863281 220.816406 118.992188 C 220.914062 119.140625 220.867188 119.34375 220.714844 119.441406 C 220.664062 119.476562 220.601562 119.492188 220.542969 119.492188 C 220.433594 119.492188 220.332031 119.4375 220.269531 119.339844 Z M 186.246094 110.421875 C 186.160156 110.265625 186.21875 110.066406 186.375 109.980469 C 186.515625 109.90625 200.433594 102.199219 203.058594 87.730469 C 203.089844 87.550781 203.261719 87.4375 203.4375 87.46875 C 203.613281 87.5 203.730469 87.667969 203.695312 87.847656 C 201.015625 102.628906 186.828125 110.476562 186.683594 110.554688 C 186.636719 110.582031 186.582031 110.59375 186.53125 110.59375 C 186.414062 110.59375 186.300781 110.53125 186.246094 110.421875 Z M 201.148438 69.367188 C 201.191406 69.195312 201.367188 69.085938 201.542969 69.132812 C 201.714844 69.179688 201.820312 69.359375 201.773438 69.53125 C 201.371094 71.097656 202.265625 72.921875 204.300781 74.675781 C 206.398438 76.476562 209.429688 77.964844 212.839844 78.855469 C 219.800781 80.675781 226.171875 79.457031 227.03125 76.136719 C 227.078125 75.964844 227.253906 75.855469 227.425781 75.90625 C 227.601562 75.949219 227.707031 76.128906 227.660156 76.300781 C 226.996094 78.867188 223.511719 80.335938 218.980469 80.335938 C 217.027344 80.335938 214.878906 80.0625 212.675781 79.484375 C 209.171875 78.570312 206.046875 77.035156 203.878906 75.167969 C 201.644531 73.246094 200.675781 71.1875 201.148438 69.367188 Z M 278.410156 186.640625 C 278.410156 186.050781 278.40625 185.460938 278.394531 184.875 C 278.390625 184.695312 278.535156 184.546875 278.714844 184.542969 C 278.90625 184.519531 279.042969 184.683594 279.042969 184.863281 C 279.054688 185.453125 279.058594 186.046875 279.058594 186.640625 C 279.058594 197.519531 277.375 208.230469 274.046875 218.480469 C 274.003906 218.617188 273.875 218.703125 273.738281 218.703125 C 273.707031 218.703125 273.671875 218.699219 273.640625 218.6875 C 273.46875 218.632812 273.375 218.449219 273.429688 218.277344 C 276.734375 208.09375 278.410156 197.453125 278.410156 186.640625 Z M 236.777344 104.269531 C 236.632812 104.160156 236.601562 103.957031 236.707031 103.8125 C 236.8125 103.667969 237.015625 103.636719 237.160156 103.742188 C 246.066406 110.292969 253.824219 118.195312 260.214844 127.230469 C 260.320312 127.378906 260.285156 127.582031 260.140625 127.683594 C 260.082031 127.726562 260.015625 127.746094 259.953125 127.746094 C 259.851562 127.746094 259.75 127.699219 259.6875 127.609375 C 253.335938 118.632812 245.628906 110.777344 236.777344 104.269531 Z M 122.480469 99.96875 C 122.386719 99.816406 122.429688 99.617188 122.582031 99.519531 C 132.675781 93.179688 143.679688 88.699219 155.292969 86.207031 C 155.464844 86.175781 155.640625 86.285156 155.679688 86.460938 C 155.714844 86.636719 155.605469 86.808594 155.429688 86.847656 C 143.890625 89.324219 132.953125 93.773438 122.925781 100.074219 C 122.875 100.105469 122.8125 100.121094 122.753906 100.121094 C 122.648438 100.121094 122.542969 100.070312 122.480469 99.96875 Z M 79.480469 157.019531 C 76.59375 166.582031 75.132812 176.550781 75.132812 186.640625 C 75.132812 188.402344 75.175781 190.171875 75.265625 191.910156 C 75.273438 192.089844 75.136719 192.246094 74.957031 192.253906 C 74.949219 192.253906 74.945312 192.253906 74.941406 192.253906 C 74.769531 192.253906 74.625 192.117188 74.617188 191.945312 C 74.527344 190.195312 74.480469 188.410156 74.480469 186.640625 C 74.480469 176.484375 75.953125 166.453125 78.859375 156.828125 C 78.910156 156.65625 79.09375 156.558594 79.261719 156.613281 C 79.433594 156.664062 79.53125 156.847656 79.480469 157.019531 Z M 122.445312 273.289062 C 122.382812 273.386719 122.277344 273.441406 122.171875 273.441406 C 122.109375 273.441406 122.050781 273.425781 121.996094 273.390625 C 112.292969 267.203125 103.746094 259.472656 96.589844 250.417969 C 96.480469 250.277344 96.503906 250.070312 96.644531 249.960938 C 96.785156 249.847656 96.988281 249.871094 97.101562 250.011719 C 104.207031 259.007812 112.703125 266.691406 122.34375 272.839844 C 122.496094 272.9375 122.539062 273.136719 122.445312 273.289062 Z M 232.269531 272.535156 C 232.367188 272.6875 232.324219 272.890625 232.175781 272.984375 C 222.304688 279.382812 211.519531 283.980469 200.117188 286.652344 C 200.09375 286.660156 200.066406 286.660156 200.042969 286.660156 C 199.894531 286.660156 199.761719 286.558594 199.726562 286.410156 C 199.6875 286.234375 199.792969 286.058594 199.96875 286.019531 C 211.300781 283.363281 222.015625 278.792969 231.820312 272.4375 C 231.972656 272.339844 232.171875 272.382812 232.269531 272.535156 Z M 128.089844 128.90625 C 128.054688 129.027344 124.613281 140.777344 111.058594 148.082031 C 111.007812 148.109375 110.957031 148.121094 110.902344 148.121094 C 110.789062 148.121094 110.675781 148.058594 110.617188 147.949219 C 110.53125 147.792969 110.59375 147.59375 110.75 147.507812 C 124.050781 140.339844 127.433594 128.84375 127.464844 128.730469 C 127.511719 128.558594 127.691406 128.453125 127.867188 128.507812 C 128.039062 128.554688 128.136719 128.734375 128.089844 128.90625 Z M 115.371094 231.351562 C 116.589844 219.007812 111.253906 211.679688 111.199219 211.605469 C 111.09375 211.460938 111.121094 211.257812 111.265625 211.148438 C 111.410156 211.042969 111.613281 211.070312 111.71875 211.214844 C 111.777344 211.289062 117.261719 218.804688 116.015625 231.414062 C 116 231.582031 115.859375 231.707031 115.695312 231.707031 C 115.683594 231.707031 115.671875 231.707031 115.660156 231.707031 C 115.480469 231.691406 115.351562 231.53125 115.371094 231.351562 Z M 171.675781 262.746094 C 171.8125 262.863281 171.828125 263.070312 171.714844 263.207031 C 171.648438 263.28125 171.558594 263.320312 171.464844 263.320312 C 171.390625 263.320312 171.316406 263.296875 171.253906 263.246094 C 157.191406 251.316406 146.007812 254.242188 145.894531 254.273438 C 145.71875 254.320312 145.542969 254.21875 145.496094 254.046875 C 145.449219 253.875 145.550781 253.695312 145.722656 253.644531 C 145.835938 253.613281 157.328125 250.578125 171.675781 262.746094 Z M 241.253906 146.582031 C 241.25 146.726562 241.085938 161.160156 251.085938 169.734375 C 251.222656 169.847656 251.238281 170.054688 251.121094 170.191406 C 251.058594 170.265625 250.96875 170.304688 250.875 170.304688 C 250.800781 170.304688 250.726562 170.28125 250.664062 170.226562 C 240.425781 161.453125 240.601562 146.714844 240.601562 146.570312 C 240.605469 146.390625 240.757812 146.265625 240.933594 146.25 C 241.113281 146.253906 241.253906 146.402344 241.253906 146.582031 Z M 230.777344 247.640625 C 235.445312 231.417969 246.375 227.136719 246.484375 227.09375 C 246.648438 227.027344 246.839844 227.117188 246.902344 227.285156 C 246.964844 227.453125 246.878906 227.640625 246.710938 227.703125 C 246.605469 227.746094 235.972656 231.933594 231.402344 247.824219 C 231.359375 247.964844 231.230469 248.058594 231.089844 248.058594 C 231.058594 248.058594 231.027344 248.054688 231 248.046875 C 230.828125 247.996094 230.726562 247.816406 230.777344 247.640625 Z M 215.695312 120.457031 C 215.871094 120.4375 216.03125 120.582031 216.039062 120.761719 C 216.050781 120.941406 215.914062 121.097656 215.734375 121.109375 C 214.441406 121.1875 213.199219 121.222656 212.015625 121.222656 C 195.660156 121.222656 189.511719 114.199219 189.242188 113.878906 C 189.125 113.742188 189.140625 113.535156 189.277344 113.417969 C 189.414062 113.300781 189.621094 113.316406 189.738281 113.457031 C 189.804688 113.539062 196.902344 121.605469 215.695312 120.457031 Z M 215.695312 120.457031 "/><path style=" stroke:none;fill-rule:nonzero;fill:rgb(16.859436%,18.818665%,26.669312%);fill-opacity:0.149;" d="M 247.355469 190.800781 C 247.328125 194.496094 245.089844 199.410156 241.960938 201.433594 C 222.222656 209.21875 241.980469 172.445312 247.355469 190.800781 Z M 217.753906 179.882812 C 211.1875 188.972656 193.636719 205.882812 203.972656 215.320312 C 209.371094 220.25 228.699219 231.84375 229.164062 219.105469 C 229.601562 206.980469 239.648438 175.113281 217.753906 179.882812 Z M 257.789062 198.347656 C 253.699219 194.628906 248.265625 203.339844 251.214844 206.613281 C 255.839844 210.417969 260.832031 202.003906 257.789062 198.347656 Z M 246.035156 214.84375 C 243.757812 212.488281 239.496094 214.792969 240.441406 218.015625 C 242.019531 223.183594 249.777344 218.855469 246.035156 214.84375 Z M 200.019531 234.226562 C 204.488281 219.214844 173.90625 230.996094 181.613281 241.113281 C 187.71875 244.535156 196.277344 239.230469 200.019531 234.226562 Z M 136.070312 230.613281 C 133.484375 224.039062 122.277344 233.144531 126.703125 237.722656 C 130.949219 241.320312 139.210938 235.871094 136.070312 230.613281 Z M 175.011719 223.195312 C 171.402344 214.113281 147.488281 224.148438 152.8125 233.851562 C 158.339844 238.714844 180.238281 232.035156 175.011719 223.195312 Z M 157.796875 155.289062 C 145.652344 126.699219 124.40625 152.410156 119.832031 171.332031 C 110.679688 195.199219 145.378906 210.238281 148.246094 181.636719 C 149.003906 171.804688 161.410156 165.980469 157.796875 155.289062 Z M 104.882812 169.578125 C 99.929688 168.640625 98.246094 178.136719 101.042969 180.929688 C 107.355469 184.910156 110.265625 171.53125 104.882812 169.578125 Z M 95.023438 183.777344 C 87.398438 177.933594 89.289062 193.878906 87.34375 198.089844 C 91.191406 213.570312 101.617188 189.351562 95.023438 183.777344 Z M 104.03125 160.992188 C 107.195312 157.269531 102.449219 151.109375 99.011719 155.742188 C 95.929688 159.542969 100.542969 165.5625 104.03125 160.992188 Z M 202.695312 157.351562 C 215.597656 163.363281 212.871094 135.21875 201.046875 140.378906 C 196.746094 144.558594 197.914062 153.808594 202.695312 157.351562 Z M 226.734375 163.320312 C 239.320312 158.101562 221.46875 120.394531 212.722656 132.449219 C 213.957031 142.074219 214.128906 162.886719 226.734375 163.320312 Z M 179.667969 95.804688 C 179.710938 91.242188 172.222656 90.917969 169.160156 92.320312 C 160.152344 100.15625 182.378906 107.234375 179.667969 95.804688 Z M 149.179688 108.824219 C 152.347656 110.738281 159.59375 113.835938 161.519531 109.015625 C 163.230469 100.804688 141.988281 100.359375 149.179688 108.824219 Z M 183.613281 136.265625 C 185.863281 142.34375 193.011719 137.035156 190.023438 132.261719 C 187.5625 128.390625 181.113281 132.117188 183.613281 136.265625 Z M 128.878906 112.683594 C 132.390625 115.351562 138.894531 108.835938 134.300781 106.023438 C 130.640625 103.917969 125.132812 109.621094 128.878906 112.683594 Z M 243.984375 131.453125 C 250.589844 125.960938 237.964844 117.597656 232.742188 117.457031 C 225.285156 121.78125 238.476562 133.800781 243.984375 131.453125 Z M 207.433594 260.371094 C 201.359375 260.367188 193.523438 262.503906 189.867188 267.550781 C 180.589844 285.339844 227.125 268.699219 207.433594 260.371094 Z M 165.648438 238.523438 C 161.46875 238.523438 161.464844 245.042969 165.648438 245.042969 C 169.828125 245.042969 169.832031 238.523438 165.648438 238.523438 Z M 165.648438 238.523438 "/></g></svg>