<svg xmlns="http://www.w3.org/2000/svg" viewBox="0 0 333.13 436.45"><defs><style>.cls-1{fill:#11103f;}</style></defs><title>Asset 1</title><g id="Layer_2" data-name="Layer 2"><g id="Layer_1-2" data-name="Layer 1"><path class="cls-1" d="M333.13,56.27c-1.85,12.65-3.36,24.3-5.33,35.88a143.22,143.22,0,0,1-4.21,16.45c-15.57,52.87-52.42,82.2-104.8,93.76-14.71,3.25-29.8,4.79-45.87,7.29.39-5.65.57-9.71,1-13.75a191.76,191.76,0,0,1,14-56.53Q207,94,251.88,73.88C277.17,62.59,303.81,57.58,333.13,56.27Z"/><path class="cls-1" d="M.05,56c46.39,3.56,89.79,12.61,122.38,48.38,19.33,21.22,28.59,47.39,33.5,75.21,1.63,9.27,2.42,18.69,3.73,29.11-8.42-.76-15.66-1.23-22.85-2.1a203.08,203.08,0,0,1-55.39-14.51c-33-14-55.77-37.91-68.66-71.34A203.32,203.32,0,0,1,.06,62.42C-.07,60.64.05,58.85.05,56Z"/><path class="cls-1" d="M165.29,157.91c-8.32-29.93-22.81-57-48.41-77.81,2.67-2.77,4.89-5.7,7.69-7.88q18.87-14.72,38.06-29a6.38,6.38,0,0,1,5.3-.8c11.89,5.08,39.14,27.25,46.95,38-12.27,9.89-22.94,21.44-30.25,35.4C177.43,129.54,171.61,144,165.29,157.91Z"/><path class="cls-1" d="M89.35,304.29c51.6,15.7,102.25,15.62,153.52.07.31,6.66.85,12.77.67,18.86,0,1.32-2.49,3.4-4.11,3.71-17.45,3.4-34.83,7.67-52.46,9.45-31.59,3.18-62.81-.25-93.42-9-4.13-1.18-5.72-3-5.24-7.23C88.88,315.08,89,310,89.35,304.29Z"/><path class="cls-1" d="M94.26,279.49c1.32-5.09,2.53-9.91,3.82-14.72.34-1.25.88-2.45,1.44-4,44.31,12.74,88.5,12.82,133.31,0l5,18.64C199.47,295,138.1,296.4,94.26,279.49Z"/><path class="cls-1" d="M91.8,352.41c49.93,12.33,98.55,12.37,148.48.06-2.3,6.56-4.17,12.3-6.41,17.89-.44,1.09-2.26,1.86-3.6,2.3q-64.28,21-128.56-.11a7.48,7.48,0,0,1-4.16-3.66C95.47,363.87,93.92,358.63,91.8,352.41Z"/><path class="cls-1" d="M223.33,237.94c-38.49,10.79-76.14,10.7-114.53-.05,2.24-5.15,4.27-9.65,6.15-14.22,1.24-3,3.35-1.89,5.42-1.38,18.58,4.58,37.46,6.69,56.51,5.07,11.75-1,23.4-3.24,35-5.31,3-.54,4.62-.24,5.76,2.7C219.28,228.93,221.18,233,223.33,237.94Z"/><path class="cls-1" d="M209.24,403.53a38.19,38.19,0,0,1-2.51,3.34,155,155,0,0,1-37.59,28.64c-1.4.76-3.75,1.3-5,.65a157.4,157.4,0,0,1-42-32.69A245.75,245.75,0,0,0,209.24,403.53Z"/><path class="cls-1" d="M214.46,46.72c9.8-21.21,22.88-39,46.89-45.38,1.6-.43,3.25-.69,4.89-1,3.92-.67,7.84-.84,10.25,3.07s1.16,7.77-1.1,11.26a20.15,20.15,0,0,1-16.77,9.42C240.26,24.75,225.58,32,214.46,46.72Z"/><path class="cls-1" d="M116.44,45.52c-.94-1-1.9-2-2.8-3C104,31.39,91.81,25.64,77.12,24.3c-5.41-.5-10.91-2.57-15.82-5-2.64-1.32-4.76-4.71-6-7.64-3-7,1.35-12.3,9-11.47a53.74,53.74,0,0,1,26.93,11C103,20,111,31.77,116.44,45.52Z"/></g></g></svg>