<?xml version="1.0" encoding="UTF-8"?><svg xmlns="http://www.w3.org/2000/svg" xmlns:xlink="http://www.w3.org/1999/xlink" contentScriptType="text/ecmascript" width="375pt" zoomAndPan="magnify" contentStyleType="text/css" viewBox="0 0 375 374.999991" height="374.999991pt" preserveAspectRatio="xMidYMid meet" version="1.2"><defs><clipPath xml:id="clip1" id="clip1"><path d="M 34 282 L 217 282 L 217 337.1875 L 34 337.1875 Z M 34 282 "/></clipPath><clipPath xml:id="clip2" id="clip2"><path d="M 409.21875 78.796875 L 409.21875 316.8125 C 409.21875 322.570312 406.726562 327.726562 403.179688 331.4375 C 399.75 335.023438 394.773438 337.1875 389.585938 337.1875 L 6.996094 337.1875 C 3.765625 337.1875 0.722656 336.390625 -1.941406 334.871094 C -7.847656 331.515625 -11.84375 324.964844 -12.035156 317.34375 C -12.039062 317.15625 -11.96875 317 -11.96875 316.808594 L -11.96875 78.796875 C -11.96875 67.476562 -3.5625 59.027344 6.996094 59.027344 L 389.585938 59.027344 C 400.144531 59.027344 409.21875 67.476562 409.21875 78.796875 Z M 409.21875 78.796875 "/></clipPath><clipPath xml:id="clip3" id="clip3"><path d="M 296 291 L 297 291 L 297 292 L 296 292 Z M 296 291 "/></clipPath><clipPath xml:id="clip4" id="clip4"><path d="M 409.21875 78.796875 L 409.21875 316.8125 C 409.21875 322.570312 406.726562 327.726562 403.179688 331.4375 C 399.75 335.023438 394.773438 337.1875 389.585938 337.1875 L 6.996094 337.1875 C 3.765625 337.1875 0.722656 336.390625 -1.941406 334.871094 C -7.847656 331.515625 -11.84375 324.964844 -12.035156 317.34375 C -12.039062 317.15625 -11.96875 317 -11.96875 316.808594 L -11.96875 78.796875 C -11.96875 67.476562 -3.5625 59.027344 6.996094 59.027344 L 389.585938 59.027344 C 400.144531 59.027344 409.21875 67.476562 409.21875 78.796875 Z M 409.21875 78.796875 "/></clipPath><clipPath xml:id="clip5" id="clip5"><path d="M 226 126 L 375 126 L 375 337.1875 L 226 337.1875 Z M 226 126 "/></clipPath><clipPath xml:id="clip6" id="clip6"><path d="M 409.21875 78.796875 L 409.21875 316.8125 C 409.21875 322.570312 406.726562 327.726562 403.179688 331.4375 C 399.75 335.023438 394.773438 337.1875 389.585938 337.1875 L 6.996094 337.1875 C 3.765625 337.1875 0.722656 336.390625 -1.941406 334.871094 C -7.847656 331.515625 -11.84375 324.964844 -12.035156 317.34375 C -12.039062 317.15625 -11.96875 317 -11.96875 316.808594 L -11.96875 78.796875 C -11.96875 67.476562 -3.5625 59.027344 6.996094 59.027344 L 389.585938 59.027344 C 400.144531 59.027344 409.21875 67.476562 409.21875 78.796875 Z M 409.21875 78.796875 "/></clipPath><clipPath xml:id="clip7" id="clip7"><path d="M 156 136 L 269 136 L 269 230 L 156 230 Z M 156 136 "/></clipPath><clipPath xml:id="clip8" id="clip8"><path d="M 409.21875 78.796875 L 409.21875 316.8125 C 409.21875 322.570312 406.726562 327.726562 403.179688 331.4375 C 399.75 335.023438 394.773438 337.1875 389.585938 337.1875 L 6.996094 337.1875 C 3.765625 337.1875 0.722656 336.390625 -1.941406 334.871094 C -7.847656 331.515625 -11.84375 324.964844 -12.035156 317.34375 C -12.039062 317.15625 -11.96875 317 -11.96875 316.808594 L -11.96875 78.796875 C -11.96875 67.476562 -3.5625 59.027344 6.996094 59.027344 L 389.585938 59.027344 C 400.144531 59.027344 409.21875 67.476562 409.21875 78.796875 Z M 409.21875 78.796875 "/></clipPath><clipPath xml:id="clip9" id="clip9"><path d="M 110 147 L 172 147 L 172 196 L 110 196 Z M 110 147 "/></clipPath><clipPath xml:id="clip10" id="clip10"><path d="M 409.21875 78.796875 L 409.21875 316.8125 C 409.21875 322.570312 406.726562 327.726562 403.179688 331.4375 C 399.75 335.023438 394.773438 337.1875 389.585938 337.1875 L 6.996094 337.1875 C 3.765625 337.1875 0.722656 336.390625 -1.941406 334.871094 C -7.847656 331.515625 -11.84375 324.964844 -12.035156 317.34375 C -12.039062 317.15625 -11.96875 317 -11.96875 316.808594 L -11.96875 78.796875 C -11.96875 67.476562 -3.5625 59.027344 6.996094 59.027344 L 389.585938 59.027344 C 400.144531 59.027344 409.21875 67.476562 409.21875 78.796875 Z M 409.21875 78.796875 "/></clipPath><clipPath xml:id="clip11" id="clip11"><path d="M 107 146 L 108 146 L 108 147 L 107 147 Z M 107 146 "/></clipPath><clipPath xml:id="clip12" id="clip12"><path d="M 409.21875 78.796875 L 409.21875 316.8125 C 409.21875 322.570312 406.726562 327.726562 403.179688 331.4375 C 399.75 335.023438 394.773438 337.1875 389.585938 337.1875 L 6.996094 337.1875 C 3.765625 337.1875 0.722656 336.390625 -1.941406 334.871094 C -7.847656 331.515625 -11.84375 324.964844 -12.035156 317.34375 C -12.039062 317.15625 -11.96875 317 -11.96875 316.808594 L -11.96875 78.796875 C -11.96875 67.476562 -3.5625 59.027344 6.996094 59.027344 L 389.585938 59.027344 C 400.144531 59.027344 409.21875 67.476562 409.21875 78.796875 Z M 409.21875 78.796875 "/></clipPath><clipPath xml:id="clip13" id="clip13"><path d="M 107 146 L 141 146 L 141 160 L 107 160 Z M 107 146 "/></clipPath><clipPath xml:id="clip14" id="clip14"><path d="M 409.21875 78.796875 L 409.21875 316.8125 C 409.21875 322.570312 406.726562 327.726562 403.179688 331.4375 C 399.75 335.023438 394.773438 337.1875 389.585938 337.1875 L 6.996094 337.1875 C 3.765625 337.1875 0.722656 336.390625 -1.941406 334.871094 C -7.847656 331.515625 -11.84375 324.964844 -12.035156 317.34375 C -12.039062 317.15625 -11.96875 317 -11.96875 316.808594 L -11.96875 78.796875 C -11.96875 67.476562 -3.5625 59.027344 6.996094 59.027344 L 389.585938 59.027344 C 400.144531 59.027344 409.21875 67.476562 409.21875 78.796875 Z M 409.21875 78.796875 "/></clipPath><clipPath xml:id="clip15" id="clip15"><path d="M 130 155 L 151 155 L 151 165 L 130 165 Z M 130 155 "/></clipPath><clipPath xml:id="clip16" id="clip16"><path d="M 409.21875 78.796875 L 409.21875 316.8125 C 409.21875 322.570312 406.726562 327.726562 403.179688 331.4375 C 399.75 335.023438 394.773438 337.1875 389.585938 337.1875 L 6.996094 337.1875 C 3.765625 337.1875 0.722656 336.390625 -1.941406 334.871094 C -7.847656 331.515625 -11.84375 324.964844 -12.035156 317.34375 C -12.039062 317.15625 -11.96875 317 -11.96875 316.808594 L -11.96875 78.796875 C -11.96875 67.476562 -3.5625 59.027344 6.996094 59.027344 L 389.585938 59.027344 C 400.144531 59.027344 409.21875 67.476562 409.21875 78.796875 Z M 409.21875 78.796875 "/></clipPath><clipPath xml:id="clip17" id="clip17"><path d="M 130 154 L 144 154 L 144 170 L 130 170 Z M 130 154 "/></clipPath><clipPath xml:id="clip18" id="clip18"><path d="M 409.21875 78.796875 L 409.21875 316.8125 C 409.21875 322.570312 406.726562 327.726562 403.179688 331.4375 C 399.75 335.023438 394.773438 337.1875 389.585938 337.1875 L 6.996094 337.1875 C 3.765625 337.1875 0.722656 336.390625 -1.941406 334.871094 C -7.847656 331.515625 -11.84375 324.964844 -12.035156 317.34375 C -12.039062 317.15625 -11.96875 317 -11.96875 316.808594 L -11.96875 78.796875 C -11.96875 67.476562 -3.5625 59.027344 6.996094 59.027344 L 389.585938 59.027344 C 400.144531 59.027344 409.21875 67.476562 409.21875 78.796875 Z M 409.21875 78.796875 "/></clipPath><clipPath xml:id="clip19" id="clip19"><path d="M 258 217 L 273 217 L 273 268 L 258 268 Z M 258 217 "/></clipPath><clipPath xml:id="clip20" id="clip20"><path d="M 409.21875 78.796875 L 409.21875 316.8125 C 409.21875 322.570312 406.726562 327.726562 403.179688 331.4375 C 399.75 335.023438 394.773438 337.1875 389.585938 337.1875 L 6.996094 337.1875 C 3.765625 337.1875 0.722656 336.390625 -1.941406 334.871094 C -7.847656 331.515625 -11.84375 324.964844 -12.035156 317.34375 C -12.039062 317.15625 -11.96875 317 -11.96875 316.808594 L -11.96875 78.796875 C -11.96875 67.476562 -3.5625 59.027344 6.996094 59.027344 L 389.585938 59.027344 C 400.144531 59.027344 409.21875 67.476562 409.21875 78.796875 Z M 409.21875 78.796875 "/></clipPath><clipPath xml:id="clip21" id="clip21"><path d="M 285 237 L 343 237 L 343 271 L 285 271 Z M 285 237 "/></clipPath><clipPath xml:id="clip22" id="clip22"><path d="M 409.21875 78.796875 L 409.21875 316.8125 C 409.21875 322.570312 406.726562 327.726562 403.179688 331.4375 C 399.75 335.023438 394.773438 337.1875 389.585938 337.1875 L 6.996094 337.1875 C 3.765625 337.1875 0.722656 336.390625 -1.941406 334.871094 C -7.847656 331.515625 -11.84375 324.964844 -12.035156 317.34375 C -12.039062 317.15625 -11.96875 317 -11.96875 316.808594 L -11.96875 78.796875 C -11.96875 67.476562 -3.5625 59.027344 6.996094 59.027344 L 389.585938 59.027344 C 400.144531 59.027344 409.21875 67.476562 409.21875 78.796875 Z M 409.21875 78.796875 "/></clipPath><clipPath xml:id="clip23" id="clip23"><path d="M 256 235 L 315 235 L 315 268 L 256 268 Z M 256 235 "/></clipPath><clipPath xml:id="clip24" id="clip24"><path d="M 409.21875 78.796875 L 409.21875 316.8125 C 409.21875 322.570312 406.726562 327.726562 403.179688 331.4375 C 399.75 335.023438 394.773438 337.1875 389.585938 337.1875 L 6.996094 337.1875 C 3.765625 337.1875 0.722656 336.390625 -1.941406 334.871094 C -7.847656 331.515625 -11.84375 324.964844 -12.035156 317.34375 C -12.039062 317.15625 -11.96875 317 -11.96875 316.808594 L -11.96875 78.796875 C -11.96875 67.476562 -3.5625 59.027344 6.996094 59.027344 L 389.585938 59.027344 C 400.144531 59.027344 409.21875 67.476562 409.21875 78.796875 Z M 409.21875 78.796875 "/></clipPath><clipPath xml:id="clip25" id="clip25"><path d="M 87 163 L 97 163 L 97 178 L 87 178 Z M 87 163 "/></clipPath><clipPath xml:id="clip26" id="clip26"><path d="M 409.21875 78.796875 L 409.21875 316.8125 C 409.21875 322.570312 406.726562 327.726562 403.179688 331.4375 C 399.75 335.023438 394.773438 337.1875 389.585938 337.1875 L 6.996094 337.1875 C 3.765625 337.1875 0.722656 336.390625 -1.941406 334.871094 C -7.847656 331.515625 -11.84375 324.964844 -12.035156 317.34375 C -12.039062 317.15625 -11.96875 317 -11.96875 316.808594 L -11.96875 78.796875 C -11.96875 67.476562 -3.5625 59.027344 6.996094 59.027344 L 389.585938 59.027344 C 400.144531 59.027344 409.21875 67.476562 409.21875 78.796875 Z M 409.21875 78.796875 "/></clipPath><clipPath xml:id="clip27" id="clip27"><path d="M 95 161 L 100 161 L 100 164 L 95 164 Z M 95 161 "/></clipPath><clipPath xml:id="clip28" id="clip28"><path d="M 409.21875 78.796875 L 409.21875 316.8125 C 409.21875 322.570312 406.726562 327.726562 403.179688 331.4375 C 399.75 335.023438 394.773438 337.1875 389.585938 337.1875 L 6.996094 337.1875 C 3.765625 337.1875 0.722656 336.390625 -1.941406 334.871094 C -7.847656 331.515625 -11.84375 324.964844 -12.035156 317.34375 C -12.039062 317.15625 -11.96875 317 -11.96875 316.808594 L -11.96875 78.796875 C -11.96875 67.476562 -3.5625 59.027344 6.996094 59.027344 L 389.585938 59.027344 C 400.144531 59.027344 409.21875 67.476562 409.21875 78.796875 Z M 409.21875 78.796875 "/></clipPath><clipPath xml:id="clip29" id="clip29"><path d="M 81 162 L 86 162 L 86 170 L 81 170 Z M 81 162 "/></clipPath><clipPath xml:id="clip30" id="clip30"><path d="M 409.21875 78.796875 L 409.21875 316.8125 C 409.21875 322.570312 406.726562 327.726562 403.179688 331.4375 C 399.75 335.023438 394.773438 337.1875 389.585938 337.1875 L 6.996094 337.1875 C 3.765625 337.1875 0.722656 336.390625 -1.941406 334.871094 C -7.847656 331.515625 -11.84375 324.964844 -12.035156 317.34375 C -12.039062 317.15625 -11.96875 317 -11.96875 316.808594 L -11.96875 78.796875 C -11.96875 67.476562 -3.5625 59.027344 6.996094 59.027344 L 389.585938 59.027344 C 400.144531 59.027344 409.21875 67.476562 409.21875 78.796875 Z M 409.21875 78.796875 "/></clipPath><clipPath xml:id="clip31" id="clip31"><path d="M 38 182 L 134 182 L 134 292 L 38 292 Z M 38 182 "/></clipPath><clipPath xml:id="clip32" id="clip32"><path d="M 409.21875 78.796875 L 409.21875 316.8125 C 409.21875 322.570312 406.726562 327.726562 403.179688 331.4375 C 399.75 335.023438 394.773438 337.1875 389.585938 337.1875 L 6.996094 337.1875 C 3.765625 337.1875 0.722656 336.390625 -1.941406 334.871094 C -7.847656 331.515625 -11.84375 324.964844 -12.035156 317.34375 C -12.039062 317.15625 -11.96875 317 -11.96875 316.808594 L -11.96875 78.796875 C -11.96875 67.476562 -3.5625 59.027344 6.996094 59.027344 L 389.585938 59.027344 C 400.144531 59.027344 409.21875 67.476562 409.21875 78.796875 Z M 409.21875 78.796875 "/></clipPath><clipPath xml:id="clip33" id="clip33"><path d="M 132 278 L 176 278 L 176 301 L 132 301 Z M 132 278 "/></clipPath><clipPath xml:id="clip34" id="clip34"><path d="M 409.21875 78.796875 L 409.21875 316.8125 C 409.21875 322.570312 406.726562 327.726562 403.179688 331.4375 C 399.75 335.023438 394.773438 337.1875 389.585938 337.1875 L 6.996094 337.1875 C 3.765625 337.1875 0.722656 336.390625 -1.941406 334.871094 C -7.847656 331.515625 -11.84375 324.964844 -12.035156 317.34375 C -12.039062 317.15625 -11.96875 317 -11.96875 316.808594 L -11.96875 78.796875 C -11.96875 67.476562 -3.5625 59.027344 6.996094 59.027344 L 389.585938 59.027344 C 400.144531 59.027344 409.21875 67.476562 409.21875 78.796875 Z M 409.21875 78.796875 "/></clipPath><clipPath xml:id="clip35" id="clip35"><path d="M 44 233 L 148 233 L 148 305 L 44 305 Z M 44 233 "/></clipPath><clipPath xml:id="clip36" id="clip36"><path d="M 409.21875 78.796875 L 409.21875 316.8125 C 409.21875 322.570312 406.726562 327.726562 403.179688 331.4375 C 399.75 335.023438 394.773438 337.1875 389.585938 337.1875 L 6.996094 337.1875 C 3.765625 337.1875 0.722656 336.390625 -1.941406 334.871094 C -7.847656 331.515625 -11.84375 324.964844 -12.035156 317.34375 C -12.039062 317.15625 -11.96875 317 -11.96875 316.808594 L -11.96875 78.796875 C -11.96875 67.476562 -3.5625 59.027344 6.996094 59.027344 L 389.585938 59.027344 C 400.144531 59.027344 409.21875 67.476562 409.21875 78.796875 Z M 409.21875 78.796875 "/></clipPath><clipPath xml:id="clip37" id="clip37"><path d="M 1 143 L 73 143 L 73 231 L 1 231 Z M 1 143 "/></clipPath><clipPath xml:id="clip38" id="clip38"><path d="M 409.21875 78.796875 L 409.21875 316.8125 C 409.21875 322.570312 406.726562 327.726562 403.179688 331.4375 C 399.75 335.023438 394.773438 337.1875 389.585938 337.1875 L 6.996094 337.1875 C 3.765625 337.1875 0.722656 336.390625 -1.941406 334.871094 C -7.847656 331.515625 -11.84375 324.964844 -12.035156 317.34375 C -12.039062 317.15625 -11.96875 317 -11.96875 316.808594 L -11.96875 78.796875 C -11.96875 67.476562 -3.5625 59.027344 6.996094 59.027344 L 389.585938 59.027344 C 400.144531 59.027344 409.21875 67.476562 409.21875 78.796875 Z M 409.21875 78.796875 "/></clipPath><clipPath xml:id="clip39" id="clip39"><path d="M 74 152 L 100 152 L 100 195 L 74 195 Z M 74 152 "/></clipPath><clipPath xml:id="clip40" id="clip40"><path d="M 409.21875 78.796875 L 409.21875 316.8125 C 409.21875 322.570312 406.726562 327.726562 403.179688 331.4375 C 399.75 335.023438 394.773438 337.1875 389.585938 337.1875 L 6.996094 337.1875 C 3.765625 337.1875 0.722656 336.390625 -1.941406 334.871094 C -7.847656 331.515625 -11.84375 324.964844 -12.035156 317.34375 C -12.039062 317.15625 -11.96875 317 -11.96875 316.808594 L -11.96875 78.796875 C -11.96875 67.476562 -3.5625 59.027344 6.996094 59.027344 L 389.585938 59.027344 C 400.144531 59.027344 409.21875 67.476562 409.21875 78.796875 Z M 409.21875 78.796875 "/></clipPath><clipPath xml:id="clip41" id="clip41"><path d="M 86 152 L 100 152 L 100 170 L 86 170 Z M 86 152 "/></clipPath><clipPath xml:id="clip42" id="clip42"><path d="M 409.21875 78.796875 L 409.21875 316.8125 C 409.21875 322.570312 406.726562 327.726562 403.179688 331.4375 C 399.75 335.023438 394.773438 337.1875 389.585938 337.1875 L 6.996094 337.1875 C 3.765625 337.1875 0.722656 336.390625 -1.941406 334.871094 C -7.847656 331.515625 -11.84375 324.964844 -12.035156 317.34375 C -12.039062 317.15625 -11.96875 317 -11.96875 316.808594 L -11.96875 78.796875 C -11.96875 67.476562 -3.5625 59.027344 6.996094 59.027344 L 389.585938 59.027344 C 400.144531 59.027344 409.21875 67.476562 409.21875 78.796875 Z M 409.21875 78.796875 "/></clipPath><clipPath xml:id="clip43" id="clip43"><path d="M 81 129 L 106 129 L 106 165 L 81 165 Z M 81 129 "/></clipPath><clipPath xml:id="clip44" id="clip44"><path d="M 409.21875 78.796875 L 409.21875 316.8125 C 409.21875 322.570312 406.726562 327.726562 403.179688 331.4375 C 399.75 335.023438 394.773438 337.1875 389.585938 337.1875 L 6.996094 337.1875 C 3.765625 337.1875 0.722656 336.390625 -1.941406 334.871094 C -7.847656 331.515625 -11.84375 324.964844 -12.035156 317.34375 C -12.039062 317.15625 -11.96875 317 -11.96875 316.808594 L -11.96875 78.796875 C -11.96875 67.476562 -3.5625 59.027344 6.996094 59.027344 L 389.585938 59.027344 C 400.144531 59.027344 409.21875 67.476562 409.21875 78.796875 Z M 409.21875 78.796875 "/></clipPath><clipPath xml:id="clip45" id="clip45"><path d="M 63 126 L 91 126 L 91 170 L 63 170 Z M 63 126 "/></clipPath><clipPath xml:id="clip46" id="clip46"><path d="M 409.21875 78.796875 L 409.21875 316.8125 C 409.21875 322.570312 406.726562 327.726562 403.179688 331.4375 C 399.75 335.023438 394.773438 337.1875 389.585938 337.1875 L 6.996094 337.1875 C 3.765625 337.1875 0.722656 336.390625 -1.941406 334.871094 C -7.847656 331.515625 -11.84375 324.964844 -12.035156 317.34375 C -12.039062 317.15625 -11.96875 317 -11.96875 316.808594 L -11.96875 78.796875 C -11.96875 67.476562 -3.5625 59.027344 6.996094 59.027344 L 389.585938 59.027344 C 400.144531 59.027344 409.21875 67.476562 409.21875 78.796875 Z M 409.21875 78.796875 "/></clipPath><clipPath xml:id="clip47" id="clip47"><path d="M 97 148 L 103 148 L 103 151 L 97 151 Z M 97 148 "/></clipPath><clipPath xml:id="clip48" id="clip48"><path d="M 409.21875 78.796875 L 409.21875 316.8125 C 409.21875 322.570312 406.726562 327.726562 403.179688 331.4375 C 399.75 335.023438 394.773438 337.1875 389.585938 337.1875 L 6.996094 337.1875 C 3.765625 337.1875 0.722656 336.390625 -1.941406 334.871094 C -7.847656 331.515625 -11.84375 324.964844 -12.035156 317.34375 C -12.039062 317.15625 -11.96875 317 -11.96875 316.808594 L -11.96875 78.796875 C -11.96875 67.476562 -3.5625 59.027344 6.996094 59.027344 L 389.585938 59.027344 C 400.144531 59.027344 409.21875 67.476562 409.21875 78.796875 Z M 409.21875 78.796875 "/></clipPath><clipPath xml:id="clip49" id="clip49"><path d="M 80 146 L 92 146 L 92 158 L 80 158 Z M 80 146 "/></clipPath><clipPath xml:id="clip50" id="clip50"><path d="M 409.21875 78.796875 L 409.21875 316.8125 C 409.21875 322.570312 406.726562 327.726562 403.179688 331.4375 C 399.75 335.023438 394.773438 337.1875 389.585938 337.1875 L 6.996094 337.1875 C 3.765625 337.1875 0.722656 336.390625 -1.941406 334.871094 C -7.847656 331.515625 -11.84375 324.964844 -12.035156 317.34375 C -12.039062 317.15625 -11.96875 317 -11.96875 316.808594 L -11.96875 78.796875 C -11.96875 67.476562 -3.5625 59.027344 6.996094 59.027344 L 389.585938 59.027344 C 400.144531 59.027344 409.21875 67.476562 409.21875 78.796875 Z M 409.21875 78.796875 "/></clipPath><clipPath xml:id="clip51" id="clip51"><path d="M 95 140 L 99 140 L 99 144 L 95 144 Z M 95 140 "/></clipPath><clipPath xml:id="clip52" id="clip52"><path d="M 409.21875 78.796875 L 409.21875 316.8125 C 409.21875 322.570312 406.726562 327.726562 403.179688 331.4375 C 399.75 335.023438 394.773438 337.1875 389.585938 337.1875 L 6.996094 337.1875 C 3.765625 337.1875 0.722656 336.390625 -1.941406 334.871094 C -7.847656 331.515625 -11.84375 324.964844 -12.035156 317.34375 C -12.039062 317.15625 -11.96875 317 -11.96875 316.808594 L -11.96875 78.796875 C -11.96875 67.476562 -3.5625 59.027344 6.996094 59.027344 L 389.585938 59.027344 C 400.144531 59.027344 409.21875 67.476562 409.21875 78.796875 Z M 409.21875 78.796875 "/></clipPath><clipPath xml:id="clip53" id="clip53"><path d="M 83 149 L 88 149 L 88 154 L 83 154 Z M 83 149 "/></clipPath><clipPath xml:id="clip54" id="clip54"><path d="M 409.21875 78.796875 L 409.21875 316.8125 C 409.21875 322.570312 406.726562 327.726562 403.179688 331.4375 C 399.75 335.023438 394.773438 337.1875 389.585938 337.1875 L 6.996094 337.1875 C 3.765625 337.1875 0.722656 336.390625 -1.941406 334.871094 C -7.847656 331.515625 -11.84375 324.964844 -12.035156 317.34375 C -12.039062 317.15625 -11.96875 317 -11.96875 316.808594 L -11.96875 78.796875 C -11.96875 67.476562 -3.5625 59.027344 6.996094 59.027344 L 389.585938 59.027344 C 400.144531 59.027344 409.21875 67.476562 409.21875 78.796875 Z M 409.21875 78.796875 "/></clipPath><clipPath xml:id="clip55" id="clip55"><path d="M 271 66 L 317 66 L 317 99 L 271 99 Z M 271 66 "/></clipPath><clipPath xml:id="clip56" id="clip56"><path d="M 409.21875 78.796875 L 409.21875 316.8125 C 409.21875 322.570312 406.726562 327.726562 403.179688 331.4375 C 399.75 335.023438 394.773438 337.1875 389.585938 337.1875 L 6.996094 337.1875 C 3.765625 337.1875 0.722656 336.390625 -1.941406 334.871094 C -7.847656 331.515625 -11.84375 324.964844 -12.035156 317.34375 C -12.039062 317.15625 -11.96875 317 -11.96875 316.808594 L -11.96875 78.796875 C -11.96875 67.476562 -3.5625 59.027344 6.996094 59.027344 L 389.585938 59.027344 C 400.144531 59.027344 409.21875 67.476562 409.21875 78.796875 Z M 409.21875 78.796875 "/></clipPath><clipPath xml:id="clip57" id="clip57"><path d="M 304 97 L 306 97 L 306 98 L 304 98 Z M 304 97 "/></clipPath><clipPath xml:id="clip58" id="clip58"><path d="M 409.21875 78.796875 L 409.21875 316.8125 C 409.21875 322.570312 406.726562 327.726562 403.179688 331.4375 C 399.75 335.023438 394.773438 337.1875 389.585938 337.1875 L 6.996094 337.1875 C 3.765625 337.1875 0.722656 336.390625 -1.941406 334.871094 C -7.847656 331.515625 -11.84375 324.964844 -12.035156 317.34375 C -12.039062 317.15625 -11.96875 317 -11.96875 316.808594 L -11.96875 78.796875 C -11.96875 67.476562 -3.5625 59.027344 6.996094 59.027344 L 389.585938 59.027344 C 400.144531 59.027344 409.21875 67.476562 409.21875 78.796875 Z M 409.21875 78.796875 "/></clipPath><clipPath xml:id="clip59" id="clip59"><path d="M 275 81 L 280 81 L 280 87 L 275 87 Z M 275 81 "/></clipPath><clipPath xml:id="clip60" id="clip60"><path d="M 409.21875 78.796875 L 409.21875 316.8125 C 409.21875 322.570312 406.726562 327.726562 403.179688 331.4375 C 399.75 335.023438 394.773438 337.1875 389.585938 337.1875 L 6.996094 337.1875 C 3.765625 337.1875 0.722656 336.390625 -1.941406 334.871094 C -7.847656 331.515625 -11.84375 324.964844 -12.035156 317.34375 C -12.039062 317.15625 -11.96875 317 -11.96875 316.808594 L -11.96875 78.796875 C -11.96875 67.476562 -3.5625 59.027344 6.996094 59.027344 L 389.585938 59.027344 C 400.144531 59.027344 409.21875 67.476562 409.21875 78.796875 Z M 409.21875 78.796875 "/></clipPath><clipPath xml:id="clip61" id="clip61"><path d="M 276 73 L 309 73 L 309 145 L 276 145 Z M 276 73 "/></clipPath><clipPath xml:id="clip62" id="clip62"><path d="M 409.21875 78.796875 L 409.21875 316.8125 C 409.21875 322.570312 406.726562 327.726562 403.179688 331.4375 C 399.75 335.023438 394.773438 337.1875 389.585938 337.1875 L 6.996094 337.1875 C 3.765625 337.1875 0.722656 336.390625 -1.941406 334.871094 C -7.847656 331.515625 -11.84375 324.964844 -12.035156 317.34375 C -12.039062 317.15625 -11.96875 317 -11.96875 316.808594 L -11.96875 78.796875 C -11.96875 67.476562 -3.5625 59.027344 6.996094 59.027344 L 389.585938 59.027344 C 400.144531 59.027344 409.21875 67.476562 409.21875 78.796875 Z M 409.21875 78.796875 "/></clipPath><clipPath xml:id="clip63" id="clip63"><path d="M 275 71 L 315 71 L 315 96 L 275 96 Z M 275 71 "/></clipPath><clipPath xml:id="clip64" id="clip64"><path d="M 409.21875 78.796875 L 409.21875 316.8125 C 409.21875 322.570312 406.726562 327.726562 403.179688 331.4375 C 399.75 335.023438 394.773438 337.1875 389.585938 337.1875 L 6.996094 337.1875 C 3.765625 337.1875 0.722656 336.390625 -1.941406 334.871094 C -7.847656 331.515625 -11.84375 324.964844 -12.035156 317.34375 C -12.039062 317.15625 -11.96875 317 -11.96875 316.808594 L -11.96875 78.796875 C -11.96875 67.476562 -3.5625 59.027344 6.996094 59.027344 L 389.585938 59.027344 C 400.144531 59.027344 409.21875 67.476562 409.21875 78.796875 Z M 409.21875 78.796875 "/></clipPath><clipPath xml:id="clip65" id="clip65"><path d="M 290 91 L 293 91 L 293 94 L 290 94 Z M 290 91 "/></clipPath><clipPath xml:id="clip66" id="clip66"><path d="M 409.21875 78.796875 L 409.21875 316.8125 C 409.21875 322.570312 406.726562 327.726562 403.179688 331.4375 C 399.75 335.023438 394.773438 337.1875 389.585938 337.1875 L 6.996094 337.1875 C 3.765625 337.1875 0.722656 336.390625 -1.941406 334.871094 C -7.847656 331.515625 -11.84375 324.964844 -12.035156 317.34375 C -12.039062 317.15625 -11.96875 317 -11.96875 316.808594 L -11.96875 78.796875 C -11.96875 67.476562 -3.5625 59.027344 6.996094 59.027344 L 389.585938 59.027344 C 400.144531 59.027344 409.21875 67.476562 409.21875 78.796875 Z M 409.21875 78.796875 "/></clipPath><clipPath xml:id="clip67" id="clip67"><path d="M 284 101 L 289 101 L 289 104 L 284 104 Z M 284 101 "/></clipPath><clipPath xml:id="clip68" id="clip68"><path d="M 409.21875 78.796875 L 409.21875 316.8125 C 409.21875 322.570312 406.726562 327.726562 403.179688 331.4375 C 399.75 335.023438 394.773438 337.1875 389.585938 337.1875 L 6.996094 337.1875 C 3.765625 337.1875 0.722656 336.390625 -1.941406 334.871094 C -7.847656 331.515625 -11.84375 324.964844 -12.035156 317.34375 C -12.039062 317.15625 -11.96875 317 -11.96875 316.808594 L -11.96875 78.796875 C -11.96875 67.476562 -3.5625 59.027344 6.996094 59.027344 L 389.585938 59.027344 C 400.144531 59.027344 409.21875 67.476562 409.21875 78.796875 Z M 409.21875 78.796875 "/></clipPath><clipPath xml:id="clip69" id="clip69"><path d="M 284 91 L 288 91 L 288 99 L 284 99 Z M 284 91 "/></clipPath><clipPath xml:id="clip70" id="clip70"><path d="M 409.21875 78.796875 L 409.21875 316.8125 C 409.21875 322.570312 406.726562 327.726562 403.179688 331.4375 C 399.75 335.023438 394.773438 337.1875 389.585938 337.1875 L 6.996094 337.1875 C 3.765625 337.1875 0.722656 336.390625 -1.941406 334.871094 C -7.847656 331.515625 -11.84375 324.964844 -12.035156 317.34375 C -12.039062 317.15625 -11.96875 317 -11.96875 316.808594 L -11.96875 78.796875 C -11.96875 67.476562 -3.5625 59.027344 6.996094 59.027344 L 389.585938 59.027344 C 400.144531 59.027344 409.21875 67.476562 409.21875 78.796875 Z M 409.21875 78.796875 "/></clipPath><clipPath xml:id="clip71" id="clip71"><path d="M 280 91 L 283 91 L 283 95 L 280 95 Z M 280 91 "/></clipPath><clipPath xml:id="clip72" id="clip72"><path d="M 409.21875 78.796875 L 409.21875 316.8125 C 409.21875 322.570312 406.726562 327.726562 403.179688 331.4375 C 399.75 335.023438 394.773438 337.1875 389.585938 337.1875 L 6.996094 337.1875 C 3.765625 337.1875 0.722656 336.390625 -1.941406 334.871094 C -7.847656 331.515625 -11.84375 324.964844 -12.035156 317.34375 C -12.039062 317.15625 -11.96875 317 -11.96875 316.808594 L -11.96875 78.796875 C -11.96875 67.476562 -3.5625 59.027344 6.996094 59.027344 L 389.585938 59.027344 C 400.144531 59.027344 409.21875 67.476562 409.21875 78.796875 Z M 409.21875 78.796875 "/></clipPath><clipPath xml:id="clip73" id="clip73"><path d="M 276 105 L 292 105 L 292 128 L 276 128 Z M 276 105 "/></clipPath><clipPath xml:id="clip74" id="clip74"><path d="M 409.21875 78.796875 L 409.21875 316.8125 C 409.21875 322.570312 406.726562 327.726562 403.179688 331.4375 C 399.75 335.023438 394.773438 337.1875 389.585938 337.1875 L 6.996094 337.1875 C 3.765625 337.1875 0.722656 336.390625 -1.941406 334.871094 C -7.847656 331.515625 -11.84375 324.964844 -12.035156 317.34375 C -12.039062 317.15625 -11.96875 317 -11.96875 316.808594 L -11.96875 78.796875 C -11.96875 67.476562 -3.5625 59.027344 6.996094 59.027344 L 389.585938 59.027344 C 400.144531 59.027344 409.21875 67.476562 409.21875 78.796875 Z M 409.21875 78.796875 "/></clipPath><clipPath xml:id="clip75" id="clip75"><path d="M 304 98 L 314 98 L 314 112 L 304 112 Z M 304 98 "/></clipPath><clipPath xml:id="clip76" id="clip76"><path d="M 409.21875 78.796875 L 409.21875 316.8125 C 409.21875 322.570312 406.726562 327.726562 403.179688 331.4375 C 399.75 335.023438 394.773438 337.1875 389.585938 337.1875 L 6.996094 337.1875 C 3.765625 337.1875 0.722656 336.390625 -1.941406 334.871094 C -7.847656 331.515625 -11.84375 324.964844 -12.035156 317.34375 C -12.039062 317.15625 -11.96875 317 -11.96875 316.808594 L -11.96875 78.796875 C -11.96875 67.476562 -3.5625 59.027344 6.996094 59.027344 L 389.585938 59.027344 C 400.144531 59.027344 409.21875 67.476562 409.21875 78.796875 Z M 409.21875 78.796875 "/></clipPath><clipPath xml:id="clip77" id="clip77"><path d="M 298 93 L 312 93 L 312 109 L 298 109 Z M 298 93 "/></clipPath><clipPath xml:id="clip78" id="clip78"><path d="M 409.21875 78.796875 L 409.21875 316.8125 C 409.21875 322.570312 406.726562 327.726562 403.179688 331.4375 C 399.75 335.023438 394.773438 337.1875 389.585938 337.1875 L 6.996094 337.1875 C 3.765625 337.1875 0.722656 336.390625 -1.941406 334.871094 C -7.847656 331.515625 -11.84375 324.964844 -12.035156 317.34375 C -12.039062 317.15625 -11.96875 317 -11.96875 316.808594 L -11.96875 78.796875 C -11.96875 67.476562 -3.5625 59.027344 6.996094 59.027344 L 389.585938 59.027344 C 400.144531 59.027344 409.21875 67.476562 409.21875 78.796875 Z M 409.21875 78.796875 "/></clipPath><clipPath xml:id="clip79" id="clip79"><path d="M 276 94 L 305 94 L 305 121 L 276 121 Z M 276 94 "/></clipPath><clipPath xml:id="clip80" id="clip80"><path d="M 409.21875 78.796875 L 409.21875 316.8125 C 409.21875 322.570312 406.726562 327.726562 403.179688 331.4375 C 399.75 335.023438 394.773438 337.1875 389.585938 337.1875 L 6.996094 337.1875 C 3.765625 337.1875 0.722656 336.390625 -1.941406 334.871094 C -7.847656 331.515625 -11.84375 324.964844 -12.035156 317.34375 C -12.039062 317.15625 -11.96875 317 -11.96875 316.808594 L -11.96875 78.796875 C -11.96875 67.476562 -3.5625 59.027344 6.996094 59.027344 L 389.585938 59.027344 C 400.144531 59.027344 409.21875 67.476562 409.21875 78.796875 Z M 409.21875 78.796875 "/></clipPath><clipPath xml:id="clip81" id="clip81"><path d="M 301 92 L 314 92 L 314 106 L 301 106 Z M 301 92 "/></clipPath><clipPath xml:id="clip82" id="clip82"><path d="M 409.21875 78.796875 L 409.21875 316.8125 C 409.21875 322.570312 406.726562 327.726562 403.179688 331.4375 C 399.75 335.023438 394.773438 337.1875 389.585938 337.1875 L 6.996094 337.1875 C 3.765625 337.1875 0.722656 336.390625 -1.941406 334.871094 C -7.847656 331.515625 -11.84375 324.964844 -12.035156 317.34375 C -12.039062 317.15625 -11.96875 317 -11.96875 316.808594 L -11.96875 78.796875 C -11.96875 67.476562 -3.5625 59.027344 6.996094 59.027344 L 389.585938 59.027344 C 400.144531 59.027344 409.21875 67.476562 409.21875 78.796875 Z M 409.21875 78.796875 "/></clipPath><clipPath xml:id="clip83" id="clip83"><path d="M 305 96 L 311 96 L 311 102 L 305 102 Z M 305 96 "/></clipPath><clipPath xml:id="clip84" id="clip84"><path d="M 409.21875 78.796875 L 409.21875 316.8125 C 409.21875 322.570312 406.726562 327.726562 403.179688 331.4375 C 399.75 335.023438 394.773438 337.1875 389.585938 337.1875 L 6.996094 337.1875 C 3.765625 337.1875 0.722656 336.390625 -1.941406 334.871094 C -7.847656 331.515625 -11.84375 324.964844 -12.035156 317.34375 C -12.039062 317.15625 -11.96875 317 -11.96875 316.808594 L -11.96875 78.796875 C -11.96875 67.476562 -3.5625 59.027344 6.996094 59.027344 L 389.585938 59.027344 C 400.144531 59.027344 409.21875 67.476562 409.21875 78.796875 Z M 409.21875 78.796875 "/></clipPath><clipPath xml:id="clip85" id="clip85"><path d="M 268 81 L 308 81 L 308 128 L 268 128 Z M 268 81 "/></clipPath><clipPath xml:id="clip86" id="clip86"><path d="M 409.21875 78.796875 L 409.21875 316.8125 C 409.21875 322.570312 406.726562 327.726562 403.179688 331.4375 C 399.75 335.023438 394.773438 337.1875 389.585938 337.1875 L 6.996094 337.1875 C 3.765625 337.1875 0.722656 336.390625 -1.941406 334.871094 C -7.847656 331.515625 -11.84375 324.964844 -12.035156 317.34375 C -12.039062 317.15625 -11.96875 317 -11.96875 316.808594 L -11.96875 78.796875 C -11.96875 67.476562 -3.5625 59.027344 6.996094 59.027344 L 389.585938 59.027344 C 400.144531 59.027344 409.21875 67.476562 409.21875 78.796875 Z M 409.21875 78.796875 "/></clipPath><clipPath xml:id="clip87" id="clip87"><path d="M 292 83 L 301 83 L 301 128 L 292 128 Z M 292 83 "/></clipPath><clipPath xml:id="clip88" id="clip88"><path d="M 409.21875 78.796875 L 409.21875 316.8125 C 409.21875 322.570312 406.726562 327.726562 403.179688 331.4375 C 399.75 335.023438 394.773438 337.1875 389.585938 337.1875 L 6.996094 337.1875 C 3.765625 337.1875 0.722656 336.390625 -1.941406 334.871094 C -7.847656 331.515625 -11.84375 324.964844 -12.035156 317.34375 C -12.039062 317.15625 -11.96875 317 -11.96875 316.808594 L -11.96875 78.796875 C -11.96875 67.476562 -3.5625 59.027344 6.996094 59.027344 L 389.585938 59.027344 C 400.144531 59.027344 409.21875 67.476562 409.21875 78.796875 Z M 409.21875 78.796875 "/></clipPath><clipPath xml:id="clip89" id="clip89"><path d="M 269 79 L 315 79 L 315 87 L 269 87 Z M 269 79 "/></clipPath><clipPath xml:id="clip90" id="clip90"><path d="M 409.21875 78.796875 L 409.21875 316.8125 C 409.21875 322.570312 406.726562 327.726562 403.179688 331.4375 C 399.75 335.023438 394.773438 337.1875 389.585938 337.1875 L 6.996094 337.1875 C 3.765625 337.1875 0.722656 336.390625 -1.941406 334.871094 C -7.847656 331.515625 -11.84375 324.964844 -12.035156 317.34375 C -12.039062 317.15625 -11.96875 317 -11.96875 316.808594 L -11.96875 78.796875 C -11.96875 67.476562 -3.5625 59.027344 6.996094 59.027344 L 389.585938 59.027344 C 400.144531 59.027344 409.21875 67.476562 409.21875 78.796875 Z M 409.21875 78.796875 "/></clipPath><clipPath xml:id="clip91" id="clip91"><path d="M 105 144 L 115 144 L 115 149 L 105 149 Z M 105 144 "/></clipPath><clipPath xml:id="clip92" id="clip92"><path d="M 409.21875 78.796875 L 409.21875 316.8125 C 409.21875 322.570312 406.726562 327.726562 403.179688 331.4375 C 399.75 335.023438 394.773438 337.1875 389.585938 337.1875 L 6.996094 337.1875 C 3.765625 337.1875 0.722656 336.390625 -1.941406 334.871094 C -7.847656 331.515625 -11.84375 324.964844 -12.035156 317.34375 C -12.039062 317.15625 -11.96875 317 -11.96875 316.808594 L -11.96875 78.796875 C -11.96875 67.476562 -3.5625 59.027344 6.996094 59.027344 L 389.585938 59.027344 C 400.144531 59.027344 409.21875 67.476562 409.21875 78.796875 Z M 409.21875 78.796875 "/></clipPath><clipPath xml:id="clip93" id="clip93"><path d="M 225 189 L 233 189 L 233 220 L 225 220 Z M 225 189 "/></clipPath><clipPath xml:id="clip94" id="clip94"><path d="M 409.21875 78.796875 L 409.21875 316.8125 C 409.21875 322.570312 406.726562 327.726562 403.179688 331.4375 C 399.75 335.023438 394.773438 337.1875 389.585938 337.1875 L 6.996094 337.1875 C 3.765625 337.1875 0.722656 336.390625 -1.941406 334.871094 C -7.847656 331.515625 -11.84375 324.964844 -12.035156 317.34375 C -12.039062 317.15625 -11.96875 317 -11.96875 316.808594 L -11.96875 78.796875 C -11.96875 67.476562 -3.5625 59.027344 6.996094 59.027344 L 389.585938 59.027344 C 400.144531 59.027344 409.21875 67.476562 409.21875 78.796875 Z M 409.21875 78.796875 "/></clipPath><clipPath xml:id="clip95" id="clip95"><path d="M 327 225 L 369 225 L 369 239 L 327 239 Z M 327 225 "/></clipPath><clipPath xml:id="clip96" id="clip96"><path d="M 409.21875 78.796875 L 409.21875 316.8125 C 409.21875 322.570312 406.726562 327.726562 403.179688 331.4375 C 399.75 335.023438 394.773438 337.1875 389.585938 337.1875 L 6.996094 337.1875 C 3.765625 337.1875 0.722656 336.390625 -1.941406 334.871094 C -7.847656 331.515625 -11.84375 324.964844 -12.035156 317.34375 C -12.039062 317.15625 -11.96875 317 -11.96875 316.808594 L -11.96875 78.796875 C -11.96875 67.476562 -3.5625 59.027344 6.996094 59.027344 L 389.585938 59.027344 C 400.144531 59.027344 409.21875 67.476562 409.21875 78.796875 Z M 409.21875 78.796875 "/></clipPath><clipPath xml:id="clip97" id="clip97"><path d="M 350 203 L 361 203 L 361 229 L 350 229 Z M 350 203 "/></clipPath><clipPath xml:id="clip98" id="clip98"><path d="M 409.21875 78.796875 L 409.21875 316.8125 C 409.21875 322.570312 406.726562 327.726562 403.179688 331.4375 C 399.75 335.023438 394.773438 337.1875 389.585938 337.1875 L 6.996094 337.1875 C 3.765625 337.1875 0.722656 336.390625 -1.941406 334.871094 C -7.847656 331.515625 -11.84375 324.964844 -12.035156 317.34375 C -12.039062 317.15625 -11.96875 317 -11.96875 316.808594 L -11.96875 78.796875 C -11.96875 67.476562 -3.5625 59.027344 6.996094 59.027344 L 389.585938 59.027344 C 400.144531 59.027344 409.21875 67.476562 409.21875 78.796875 Z M 409.21875 78.796875 "/></clipPath></defs><g xml:id="surface1" id="surface1"><g clip-rule="nonzero" clip-path="url(#clip1)"><g clip-rule="nonzero" clip-path="url(#clip2)"><path style=" stroke:none;fill-rule:nonzero;fill:rgb(40.388489%,57.649231%,99.609375%);fill-opacity:1;" d="M 174.371094 287.167969 C 159.546875 283.289062 143.726562 283.050781 128.664062 282.992188 C 102.097656 282.890625 75.527344 283.257812 48.960938 283.523438 C 48.09375 283.53125 47.191406 283.550781 46.410156 283.953125 C 45.507812 284.421875 44.894531 285.34375 44.339844 286.242188 C 34.914062 301.566406 32.234375 321.429688 37.222656 338.980469 C 42.085938 356.09375 62.117188 357.128906 75.996094 356.746094 C 100.285156 356.074219 124.570312 355.402344 148.859375 354.726562 C 157.273438 354.496094 166.105469 354.363281 173.5625 358.71875 C 181.015625 363.074219 186.320312 373.535156 182.777344 382.042969 C 189.914062 382.214844 197.054688 382.382812 204.191406 382.550781 C 206.074219 382.59375 208.144531 382.566406 209.570312 381.195312 C 210.769531 380.046875 211.210938 378.222656 211.566406 376.503906 C 217.808594 346.390625 224.261719 313.765625 195.230469 295.886719 C 188.652344 291.835938 181.628906 289.066406 174.371094 287.167969 Z M 174.371094 287.167969 "/></g></g><g clip-rule="nonzero" clip-path="url(#clip3)"><g clip-rule="nonzero" clip-path="url(#clip4)"><path style=" stroke:none;fill-rule:nonzero;fill:rgb(95.689392%,60.389709%,47.839355%);fill-opacity:1;" d="M 296.636719 291.214844 C 296.515625 291.28125 296.390625 291.347656 296.261719 291.417969 C 296.441406 291.296875 296.621094 291.183594 296.804688 291.070312 C 296.753906 291.117188 296.695312 291.160156 296.636719 291.214844 Z M 296.636719 291.214844 "/></g></g><g clip-rule="nonzero" clip-path="url(#clip5)"><g clip-rule="nonzero" clip-path="url(#clip6)"><path style=" stroke:none;fill-rule:nonzero;fill:rgb(100%,100%,100%);fill-opacity:1;" d="M 392.066406 191.429688 C 378.53125 157.914062 342.652344 133.359375 309.148438 127.085938 C 285.417969 122.640625 254.90625 133.667969 236.945312 149.75 C 234.765625 151.699219 233.058594 156.332031 232.195312 159.175781 C 231.878906 160.226562 231.789062 161.304688 231.765625 162.390625 C 231.660156 162.882812 231.582031 163.402344 231.539062 163.964844 C 230.746094 174.402344 232.828125 184.878906 232.253906 195.34375 C 232.199219 196.277344 231.851562 197.140625 231.75 198.066406 C 231.539062 199.957031 231.761719 201.984375 231.761719 203.886719 C 231.761719 206.070312 231.777344 208.25 231.761719 210.433594 C 231.753906 211.382812 231.671875 212.339844 231.738281 213.285156 C 232.332031 221.40625 230.007812 231.230469 231.875 238.886719 C 231.90625 239.003906 231.933594 239.117188 231.957031 239.234375 C 233.421875 246.261719 230.765625 253.261719 230.789062 260.28125 C 230.824219 269.5625 231.15625 278.664062 230.574219 287.9375 C 230.53125 288.183594 230.496094 288.429688 230.464844 288.667969 C 230.285156 289.953125 230.246094 291.230469 230.027344 292.511719 C 228.945312 298.878906 229.09375 305.386719 228.953125 311.824219 C 228.855469 316.109375 229.949219 323.027344 228.542969 326.925781 C 228.246094 327.757812 227.980469 328.582031 227.839844 329.503906 C 227.417969 332.179688 227.46875 334.875 227.425781 337.578125 C 227.390625 339.828125 227.304688 342.195312 228.273438 344.257812 C 228.160156 347.570312 227.871094 350.871094 227.09375 354.078125 C 226.585938 356.175781 225.878906 358.449219 226.714844 360.425781 C 227.695312 362.742188 230.332031 363.636719 232.675781 364.285156 C 245.414062 367.78125 258.753906 366.8125 271.851562 366.523438 C 284.644531 366.238281 297.285156 364.226562 309.914062 362.230469 C 321.46875 360.402344 336.890625 361.375 348.605469 358.546875 C 348.726562 358.613281 348.859375 358.671875 349 358.714844 C 350.914062 359.265625 352.964844 359.414062 354.980469 359.386719 C 355.144531 359.621094 355.328125 359.84375 355.53125 360.054688 C 356.601562 361.132812 358.472656 360.683594 358.886719 359.15625 C 361.097656 358.917969 363.238281 358.367188 364.621094 356.320312 C 366.6875 353.265625 365.78125 346.546875 366.164062 342.890625 C 367.148438 333.507812 365.417969 324.59375 365.75 315.421875 C 365.792969 314.1875 365.910156 312.949219 365.871094 311.710938 C 365.617188 303.917969 366.464844 293.054688 364.351562 285.269531 C 363.851562 283.421875 363.890625 278.984375 364.296875 277.257812 C 364.722656 275.464844 363.570312 273.058594 365.257812 272.234375 C 372.46875 268.71875 379.167969 266.027344 385.964844 262.222656 C 394.550781 257.410156 399.277344 250.480469 400.71875 240.300781 C 403.019531 224.066406 397.132812 203.980469 392.066406 191.429688 Z M 232.132812 236.535156 C 232.074219 236.1875 232.039062 235.839844 232.039062 235.492188 C 232.035156 235.050781 232.113281 234.636719 232.226562 234.226562 C 232.207031 235 232.175781 235.765625 232.132812 236.535156 Z M 231.519531 260.671875 C 231.523438 260.648438 231.527344 260.625 231.535156 260.601562 C 231.574219 260.386719 231.613281 260.171875 231.648438 259.953125 C 231.625 260.515625 231.585938 261.074219 231.527344 261.628906 C 231.523438 261.308594 231.519531 260.988281 231.519531 260.671875 Z M 231.75 265.484375 C 231.695312 265.910156 231.636719 266.339844 231.578125 266.765625 C 231.585938 266.390625 231.589844 266.023438 231.589844 265.652344 C 231.589844 265.347656 231.585938 265.039062 231.582031 264.730469 C 231.644531 264.65625 231.703125 264.570312 231.757812 264.472656 C 231.757812 264.808594 231.753906 265.144531 231.75 265.484375 Z M 232.101562 253.691406 C 232.089844 253.550781 232.078125 253.410156 232.074219 253.273438 C 232.035156 252.597656 232.136719 252.011719 232.28125 251.371094 C 232.289062 251.558594 232.292969 251.746094 232.296875 251.933594 C 232.3125 252.554688 232.222656 253.117188 232.101562 253.691406 Z M 232.550781 212.753906 C 232.550781 212.742188 232.550781 212.730469 232.550781 212.71875 C 232.542969 212.375 232.550781 212.027344 232.550781 211.683594 Z M 232.511719 201.792969 C 232.460938 200.585938 232.390625 199.34375 232.535156 198.171875 C 232.523438 199.378906 232.515625 200.585938 232.511719 201.792969 Z M 241.777344 148.542969 C 241.738281 148.566406 241.695312 148.589844 241.652344 148.617188 C 241.335938 148.808594 241.035156 149.011719 240.742188 149.21875 C 240.789062 149.183594 240.832031 149.144531 240.878906 149.105469 C 241.246094 148.808594 241.625 148.527344 242.007812 148.265625 C 241.929688 148.355469 241.855469 148.449219 241.777344 148.542969 Z M 242.542969 146.839844 C 242.6875 146.792969 242.835938 146.75 242.988281 146.707031 C 242.222656 147.183594 241.476562 147.683594 240.753906 148.226562 C 240.996094 147.949219 241.25 147.679688 241.515625 147.414062 C 241.582031 147.347656 241.648438 147.28125 241.714844 147.214844 C 241.980469 147.066406 242.25 146.933594 242.542969 146.839844 Z M 248.339844 143.25 C 248.289062 143.285156 248.238281 143.324219 248.191406 143.363281 C 247.980469 143.472656 247.777344 143.59375 247.578125 143.71875 C 246.929688 143.945312 246.269531 144.148438 245.625 144.394531 C 245.207031 144.554688 244.789062 144.730469 244.40625 144.964844 C 244.363281 144.929688 244.320312 144.898438 244.273438 144.871094 C 245.730469 144.0625 247.273438 143.339844 248.851562 142.882812 C 248.679688 143.003906 248.511719 143.125 248.339844 143.25 Z M 235.722656 155.542969 C 235.894531 155.480469 236.066406 155.398438 236.230469 155.3125 C 235.941406 155.609375 235.660156 155.902344 235.386719 156.191406 C 235.492188 155.972656 235.605469 155.753906 235.722656 155.542969 Z M 249.949219 140.492188 C 251.695312 139.691406 253.46875 138.960938 255.25 138.25 C 256.09375 137.910156 256.945312 137.515625 257.816406 137.265625 C 258.019531 137.207031 258.222656 137.164062 258.429688 137.121094 C 258.132812 137.269531 257.839844 137.421875 257.546875 137.5625 C 257.507812 137.582031 257.46875 137.601562 257.429688 137.621094 C 257.328125 137.640625 257.234375 137.660156 257.144531 137.675781 C 255.726562 137.957031 254.492188 139.269531 253.042969 139.203125 C 252.542969 139.183594 252.546875 139.988281 253.042969 140.011719 C 253.179688 140.019531 253.3125 140.015625 253.449219 140.011719 C 253.285156 140.136719 253.121094 140.261719 252.957031 140.390625 C 252.308594 140.738281 251.667969 141.09375 251.035156 141.472656 C 250.394531 141.628906 249.765625 141.8125 249.15625 141.960938 C 247.765625 142.308594 246.402344 142.871094 245.09375 143.527344 C 245.199219 143.4375 245.300781 143.34375 245.40625 143.253906 C 246.773438 142.019531 248.304688 141.246094 249.949219 140.492188 Z M 233.078125 159.011719 C 233.484375 157.835938 234.015625 156.640625 234.734375 155.613281 C 234.757812 155.621094 234.777344 155.628906 234.800781 155.636719 C 234.449219 156.335938 234.160156 157.074219 233.964844 157.832031 C 233.621094 158.277344 233.300781 158.730469 233.011719 159.214844 C 233.035156 159.144531 233.054688 159.078125 233.078125 159.011719 Z M 344.300781 268.417969 C 344.230469 268.335938 344.164062 268.234375 344.09375 268.15625 C 344.050781 268.109375 344.007812 268.023438 343.964844 268.023438 L 344.550781 268.023438 Z M 344.300781 268.417969 "/></g></g><g clip-rule="nonzero" clip-path="url(#clip7)"><g clip-rule="nonzero" clip-path="url(#clip8)"><path style=" stroke:none;fill-rule:nonzero;fill:rgb(100%,100%,100%);fill-opacity:1;" d="M 250.121094 199.289062 C 249.417969 199.976562 239.667969 207.835938 232.183594 213.855469 C 229.332031 216.148438 226.8125 218.171875 225.242188 219.4375 C 224.351562 220.148438 223.765625 220.617188 223.601562 220.75 C 217.554688 225.65625 210.394531 229.019531 202.023438 229.355469 C 181.933594 230.160156 156.179688 190.726562 156.179688 190.726562 L 171.03125 172.566406 L 201.253906 193.800781 C 201.253906 193.800781 228.980469 139.671875 264.859375 136.324219 C 277.484375 135.144531 250.714844 174.40625 250.714844 174.40625 C 250.714844 174.40625 266.6875 183.140625 250.121094 199.289062 Z M 250.121094 199.289062 "/></g></g><g clip-rule="nonzero" clip-path="url(#clip9)"><g clip-rule="nonzero" clip-path="url(#clip10)"><path style=" stroke:none;fill-rule:nonzero;fill:rgb(40.388489%,57.649231%,99.609375%);fill-opacity:1;" d="M 167.238281 169.257812 C 162.742188 165.785156 159.660156 162.539062 155 159.277344 C 149.632812 155.523438 143.839844 151.453125 137.625 149.402344 C 127.835938 146.167969 115.65625 146.71875 115.3125 148.515625 C 115 150.15625 123.308594 150.15625 124.734375 150.144531 C 124.871094 150.140625 125.003906 150.183594 125.113281 150.261719 L 126.617188 151.308594 C 127.179688 151.703125 126.90625 152.621094 126.226562 152.609375 L 112.605469 152.351562 C 111.746094 152.304688 110.910156 152.765625 110.535156 153.574219 C 110.214844 154.269531 110.945312 155.707031 112.402344 156.15625 C 112.851562 156.292969 124.4375 156.230469 127.84375 156.386719 C 128.289062 156.40625 128.59375 156.855469 128.464844 157.300781 L 128.34375 157.722656 C 128.257812 158.019531 128.003906 158.222656 127.710938 158.230469 C 125.339844 158.289062 115.121094 158.664062 113.394531 160.71875 C 113.304688 160.828125 113.253906 160.96875 113.238281 161.109375 C 113.230469 161.246094 113.324219 161.414062 113.460938 161.582031 C 113.871094 162.082031 114.484375 162.351562 115.117188 162.351562 C 117.585938 162.351562 125.152344 162.351562 127.300781 162.351562 C 127.625 162.351562 127.902344 162.589844 127.964844 162.921875 C 128.042969 163.335938 127.765625 163.730469 127.367188 163.769531 C 124.824219 164.027344 116.695312 164.964844 116.695312 166.480469 C 116.695312 168.128906 126.953125 167.8125 128.648438 167.746094 C 128.800781 167.742188 128.949219 167.789062 129.074219 167.886719 C 130.015625 168.617188 134.339844 171.867188 137.957031 172.890625 C 138.089844 172.929688 144.160156 174.585938 144.25 174.695312 C 145.929688 176.753906 156.730469 195.730469 157.222656 195.390625 C 157.683594 195.066406 168.988281 177.160156 171.253906 173.570312 C 171.46875 173.230469 171.363281 172.773438 171.027344 172.566406 C 170.023438 171.945312 168.183594 169.992188 167.238281 169.257812 Z M 167.238281 169.257812 "/></g></g><g clip-rule="nonzero" clip-path="url(#clip11)"><g clip-rule="nonzero" clip-path="url(#clip12)"><path style=" stroke:none;fill-rule:nonzero;fill:rgb(8.239746%,0%,46.669006%);fill-opacity:1;" d="M 107.074219 146.820312 L 107.886719 146.964844 C 107.617188 146.914062 107.347656 146.863281 107.078125 146.8125 C 107.074219 146.816406 107.074219 146.816406 107.074219 146.820312 Z M 107.074219 146.820312 "/></g></g><g clip-rule="nonzero" clip-path="url(#clip13)"><g clip-rule="nonzero" clip-path="url(#clip14)"><path style=" stroke:none;fill-rule:nonzero;fill:rgb(8.239746%,0%,46.669006%);fill-opacity:1;" d="M 107.265625 146.226562 C 107.21875 146.371094 107.285156 146.527344 107.417969 146.589844 L 108.425781 147.058594 L 107.886719 146.964844 C 119.265625 149.15625 130.269531 153.457031 140.234375 159.605469 C 140.464844 159.746094 140.738281 159.507812 140.640625 159.246094 C 140.316406 158.386719 139.4375 157.75 138.628906 157.261719 C 129.015625 151.453125 118.3125 147.632812 107.3125 146.066406 C 107.296875 146.121094 107.28125 146.175781 107.265625 146.226562 Z M 107.265625 146.226562 "/></g></g><g clip-rule="nonzero" clip-path="url(#clip15)"><g clip-rule="nonzero" clip-path="url(#clip16)"><path style=" stroke:none;fill-rule:nonzero;fill:rgb(40.388489%,57.649231%,99.609375%);fill-opacity:1;" d="M 132.933594 155.441406 C 132.679688 155.714844 130.855469 156.195312 130.5625 156.425781 C 131.980469 159.121094 135.667969 160.484375 138.035156 162.003906 C 141.175781 164.023438 146.628906 164.359375 150.199219 164.410156 C 151.183594 154.890625 139.808594 154.882812 132.933594 155.441406 Z M 132.933594 155.441406 "/></g></g><g clip-rule="nonzero" clip-path="url(#clip17)"><g clip-rule="nonzero" clip-path="url(#clip18)"><path style=" stroke:none;fill-rule:nonzero;fill:rgb(8.239746%,0%,46.669006%);fill-opacity:1;" d="M 143.699219 169.222656 C 143.554688 169.363281 143.328125 169.355469 143.195312 169.199219 C 142.269531 168.097656 141.507812 166.851562 140.933594 165.488281 C 140.582031 164.652344 140.386719 163.796875 140.203125 162.96875 C 140.097656 162.511719 139.992188 162.039062 139.859375 161.578125 C 139.625 160.761719 138.878906 160.636719 137.761719 160.542969 C 137.558594 160.523438 137.351562 160.503906 137.152344 160.480469 C 134.859375 160.167969 132.492188 159.679688 131.007812 157.457031 C 130.683594 156.96875 130.574219 156.457031 130.691406 155.980469 C 130.8125 155.484375 131.160156 155.082031 131.691406 154.804688 C 132.183594 154.550781 132.742188 154.550781 133.191406 154.554688 L 138.710938 154.582031 C 138.90625 154.582031 139.066406 154.75 139.0625 154.953125 C 139.0625 155.160156 138.902344 155.324219 138.707031 155.324219 L 133.1875 155.296875 C 132.792969 155.296875 132.347656 155.292969 132.003906 155.46875 C 131.664062 155.648438 131.449219 155.886719 131.378906 156.164062 C 131.3125 156.425781 131.386719 156.726562 131.589844 157.03125 C 132.910156 159.007812 135.019531 159.441406 137.242188 159.742188 C 137.425781 159.765625 137.617188 159.785156 137.820312 159.800781 C 138.859375 159.890625 140.148438 160 140.539062 161.363281 C 140.679688 161.84375 140.789062 162.328125 140.894531 162.796875 C 141.078125 163.628906 141.257812 164.414062 141.582031 165.1875 C 142.125 166.476562 142.84375 167.65625 143.722656 168.703125 C 143.851562 168.855469 143.84375 169.085938 143.699219 169.222656 Z M 143.699219 169.222656 "/></g></g><g clip-rule="nonzero" clip-path="url(#clip19)"><g clip-rule="nonzero" clip-path="url(#clip20)"><path style=" stroke:none;fill-rule:nonzero;fill:rgb(67.449951%,81.17981%,98.81897%);fill-opacity:1;" d="M 271.0625 217.976562 L 260 217.976562 C 259.042969 217.976562 258.269531 218.398438 258.269531 219.394531 C 258.269531 220.394531 259.042969 220.816406 260 220.816406 L 261.234375 220.816406 L 261.234375 262.492188 C 261.234375 262.730469 260.769531 262.964844 260.796875 263.195312 C 261.128906 265.898438 262.589844 267.984375 265.265625 267.984375 C 268.164062 267.984375 269.773438 265.527344 269.773438 262.496094 L 269.773438 220.816406 L 271.0625 220.816406 C 272.015625 220.816406 272.792969 220.394531 272.792969 219.394531 C 272.792969 218.398438 272.015625 217.976562 271.0625 217.976562 Z M 271.0625 217.976562 "/></g></g><g clip-rule="nonzero" clip-path="url(#clip21)"><g clip-rule="nonzero" clip-path="url(#clip22)"><path style=" stroke:none;fill-rule:nonzero;fill:rgb(40.388489%,57.649231%,99.609375%);fill-opacity:1;" d="M 336.152344 252.613281 C 334.859375 249.578125 333.492188 246.578125 332.046875 243.617188 C 331.707031 242.921875 331.363281 242.226562 331.015625 241.535156 C 330.972656 241.453125 330.929688 241.371094 330.890625 241.285156 C 330.683594 240.890625 330.476562 240.492188 330.269531 240.097656 C 329.761719 239.128906 329.238281 238.167969 328.707031 237.210938 L 287.5625 242.867188 C 287.257812 246.492188 287.5 250.195312 287.277344 253.816406 C 287.101562 256.636719 286.75 258.632812 285.65625 261.382812 C 307.605469 270.730469 325.53125 272.09375 342.644531 269.699219 C 340.683594 263.921875 338.539062 258.214844 336.152344 252.613281 Z M 336.152344 252.613281 "/></g></g><g clip-rule="nonzero" clip-path="url(#clip23)"><g clip-rule="nonzero" clip-path="url(#clip24)"><path style=" stroke:none;fill-rule:nonzero;fill:rgb(40.388489%,57.649231%,99.609375%);fill-opacity:1;" d="M 314.191406 255.738281 C 313.089844 244.15625 294.195312 237.523438 285.796875 236.1875 C 283.859375 235.878906 281.886719 235.691406 279.902344 235.625 C 273.222656 235.394531 266.421875 236.558594 260.515625 239.265625 C 259.675781 239.652344 257.757812 240.6875 257.230469 241.765625 C 257.230469 241.765625 257.203125 241.824219 257.1875 241.855469 C 256.933594 242.414062 256.980469 243.167969 257.46875 243.007812 C 262.019531 241.511719 266.929688 240.832031 271.199219 240.984375 L 271.199219 242.613281 C 266.929688 242.464844 261.496094 243.265625 256.742188 244.992188 C 256.496094 245.082031 256.570312 245.394531 256.605469 245.746094 C 256.636719 246.015625 256.777344 246.285156 256.824219 246.5625 C 256.894531 247.007812 256.867188 247.3125 257.191406 247.222656 C 261.449219 246 266.929688 245.570312 271.199219 245.914062 L 271.199219 247.53125 C 266.929688 247.210938 261.808594 247.628906 257.683594 248.804688 C 257.355469 248.898438 257.421875 249.367188 257.578125 249.796875 C 257.753906 250.28125 258.058594 250.75 258.265625 251.195312 C 258.402344 251.476562 258.277344 251.628906 258.507812 251.582031 C 262.511719 250.773438 268.351562 250.226562 271.199219 250.589844 L 271.199219 252.210938 C 268.351562 251.902344 263.851562 252.289062 260.277344 252.925781 C 259.777344 253.015625 259.902344 253.917969 260.371094 254.28125 C 262.105469 255.617188 264.699219 254.6875 266.488281 254.855469 C 269.234375 255.117188 272.066406 255.480469 274.789062 256.46875 C 274.894531 256.507812 275.019531 256.542969 275.121094 256.582031 C 280.492188 258.765625 294.421875 266.53125 304.125 267.207031 C 310.5 267.648438 315.070312 265.023438 314.191406 255.738281 Z M 314.191406 255.738281 "/></g></g><g clip-rule="nonzero" clip-path="url(#clip25)"><g clip-rule="nonzero" clip-path="url(#clip26)"><path style=" stroke:none;fill-rule:nonzero;fill:rgb(8.239746%,0%,46.669006%);fill-opacity:1;" d="M 96.054688 165.292969 L 96.054688 177.242188 C 92.707031 174.917969 90.152344 171.8125 88.820312 168.269531 C 88.277344 166.832031 87.90625 165.28125 87.78125 163.691406 L 95.863281 165.242188 Z M 96.054688 165.292969 "/></g></g><g clip-rule="nonzero" clip-path="url(#clip27)"><g clip-rule="nonzero" clip-path="url(#clip28)"><path style=" stroke:none;fill-rule:nonzero;fill:rgb(8.239746%,0%,46.669006%);fill-opacity:1;" d="M 97.339844 163.46875 C 97.082031 163.46875 96.824219 163.433594 96.574219 163.355469 C 95.882812 163.136719 95.355469 162.632812 95.078125 161.953125 C 94.945312 161.636719 95.140625 161.277344 95.464844 161.222656 C 95.699219 161.179688 95.921875 161.324219 96.019531 161.550781 C 96.183594 161.933594 96.476562 162.210938 96.867188 162.332031 C 97.363281 162.492188 98.105469 162.410156 98.824219 161.792969 C 99.019531 161.625 99.304688 161.636719 99.492188 161.816406 C 99.714844 162.035156 99.707031 162.414062 99.46875 162.617188 C 98.820312 163.171875 98.070312 163.46875 97.339844 163.46875 Z M 97.339844 163.46875 "/></g></g><g clip-rule="nonzero" clip-path="url(#clip29)"><g clip-rule="nonzero" clip-path="url(#clip30)"><path style=" stroke:none;fill-rule:nonzero;fill:rgb(8.239746%,0%,46.669006%);fill-opacity:1;" d="M 85.328125 163.484375 C 85.484375 166.378906 83.734375 169.078125 81.03125 169.957031 L 81.683594 162.617188 L 85.3125 163.484375 Z M 85.328125 163.484375 "/></g></g><g clip-rule="nonzero" clip-path="url(#clip31)"><g clip-rule="nonzero" clip-path="url(#clip32)"><path style=" stroke:none;fill-rule:nonzero;fill:rgb(100%,78.819275%,19.999695%);fill-opacity:1;" d="M 130.53125 266.242188 C 128.769531 248.742188 136.515625 215.289062 121.121094 200.375 C 116.066406 195.480469 110.695312 190.792969 104.433594 187.796875 C 96.929688 184.210938 88.484375 182.824219 80.277344 182.976562 C 64.914062 183.265625 48.875 189.128906 42.59375 205.140625 C 35.710938 222.679688 39.214844 242.0625 40.957031 260.265625 C 41.675781 267.761719 44.304688 277.65625 41.839844 284.992188 C 41.386719 286.339844 40.738281 287.789062 41.203125 289.136719 C 41.574219 290.210938 42.605469 290.917969 43.671875 291.175781 C 45.820312 291.691406 48.554688 291.164062 50.851562 291.359375 C 53.007812 291.542969 55.175781 291.621094 57.335938 291.675781 C 62.914062 291.8125 68.496094 291.703125 74.066406 291.503906 C 86.363281 291.058594 98.691406 290.1875 110.894531 288.515625 C 115.832031 287.839844 125.851562 287.78125 129.664062 283.699219 C 137.378906 275.445312 132.046875 281.28125 130.53125 266.242188 Z M 130.53125 266.242188 "/></g></g><g clip-rule="nonzero" clip-path="url(#clip33)"><g clip-rule="nonzero" clip-path="url(#clip34)"><path style=" stroke:none;fill-rule:nonzero;fill:rgb(92.549133%,53.329468%,44.709778%);fill-opacity:1;" d="M 175.304688 282.0625 C 170.160156 281.3125 164.863281 281.492188 159.761719 282.613281 C 159.496094 282.671875 159.242188 282.507812 159.1875 282.246094 C 159.136719 281.988281 159.300781 281.730469 159.566406 281.671875 C 164.457031 280.597656 169.519531 280.367188 174.46875 280.976562 C 174.875 281.027344 175.144531 280.546875 174.871094 280.246094 C 174.859375 280.230469 174.84375 280.214844 174.828125 280.199219 C 174.269531 279.621094 172.617188 279.191406 171.90625 279.042969 C 166.894531 277.996094 161.378906 277.921875 156.144531 278.644531 C 154.589844 278.855469 153.058594 279.140625 151.570312 279.488281 C 145.570312 280.898438 130.75 284.898438 132.144531 293.699219 C 132.949219 298.746094 138.652344 302.097656 143.207031 300.398438 C 149.9375 297.886719 156.054688 293.257812 162.667969 290.359375 C 162.746094 290.328125 162.820312 290.296875 162.894531 290.269531 C 164.914062 289.453125 167.054688 289 169.183594 288.605469 C 170.574219 288.351562 172.652344 288.667969 173.84375 287.742188 C 174.167969 287.488281 173.980469 286.976562 173.570312 286.96875 C 169.402344 286.890625 164.660156 287.1875 160.824219 288.464844 C 160.570312 288.550781 160.296875 288.414062 160.214844 288.164062 C 160.132812 287.914062 160.273438 287.636719 160.527344 287.550781 C 164.84375 286.113281 170.234375 285.878906 174.746094 286.039062 C 174.933594 286.046875 175.109375 285.9375 175.179688 285.761719 C 175.285156 285.484375 175.378906 285.195312 175.453125 284.898438 C 175.519531 284.636719 175.339844 284.378906 175.070312 284.351562 C 170.632812 283.9375 165.703125 284.339844 160.148438 285.5625 C 159.882812 285.621094 159.628906 285.457031 159.574219 285.195312 C 159.519531 284.933594 159.6875 284.679688 159.949219 284.621094 C 165.621094 283.375 170.660156 282.96875 175.207031 283.394531 C 175.472656 283.421875 175.703125 283.210938 175.703125 282.945312 C 175.699219 282.785156 175.695312 282.625 175.679688 282.464844 C 175.664062 282.261719 175.511719 282.09375 175.304688 282.0625 Z M 175.304688 282.0625 "/></g></g><g clip-rule="nonzero" clip-path="url(#clip35)"><g clip-rule="nonzero" clip-path="url(#clip36)"><path style=" stroke:none;fill-rule:nonzero;fill:rgb(92.549133%,53.329468%,44.709778%);fill-opacity:1;" d="M 144.769531 283.070312 L 84.070312 276.71875 L 77.414062 233.328125 C 67.808594 233.660156 54.394531 233.550781 44.773438 233.515625 C 45.328125 236.578125 45.390625 239.6875 45.230469 242.652344 C 47.015625 256.457031 50.085938 276.539062 54.921875 291.367188 C 58.753906 297.527344 63.917969 301.9375 71.40625 302.902344 C 71.808594 302.957031 72.214844 303.007812 72.617188 303.058594 C 92.550781 305.5 112.792969 304.679688 132.417969 301.222656 C 136.375 300.527344 140.535156 299.59375 143.484375 296.390625 C 149.523438 289.839844 148.527344 285.695312 144.769531 283.070312 Z M 144.769531 283.070312 "/></g></g><g clip-rule="nonzero" clip-path="url(#clip37)"><g clip-rule="nonzero" clip-path="url(#clip38)"><path style=" stroke:none;fill-rule:nonzero;fill:rgb(8.239746%,0%,46.669006%);fill-opacity:1;" d="M 33.578125 179.609375 C 25.914062 189.105469 7.992188 188.351562 2.722656 199.222656 C 0.707031 203.390625 1.238281 208.425781 3.355469 212.621094 C 5.46875 216.816406 9.019531 220.253906 12.917969 223.105469 C 21.023438 229.027344 32.3125 232.679688 41.347656 228.445312 C 47.335938 225.636719 51.28125 219.597656 51.824219 213.273438 C 52.214844 208.671875 51.019531 203.757812 53.054688 199.589844 C 54.914062 195.785156 59.015625 193.539062 62.324219 190.753906 C 69.210938 184.960938 72.980469 176.03125 72.238281 167.261719 C 71.589844 159.566406 60.625 137.382812 49.722656 144.878906 C 37.207031 153.484375 41.894531 169.300781 33.578125 179.609375 Z M 33.578125 179.609375 "/></g></g><g clip-rule="nonzero" clip-path="url(#clip39)"><g clip-rule="nonzero" clip-path="url(#clip40)"><path style=" stroke:none;fill-rule:nonzero;fill:rgb(92.549133%,53.329468%,44.709778%);fill-opacity:1;" d="M 99.019531 159.515625 L 99.019531 181.972656 C 99.019531 188.917969 93.570312 194.550781 86.925781 194.550781 C 80.285156 194.550781 74.832031 188.917969 74.832031 181.972656 L 74.832031 159.515625 C 74.832031 155.707031 77.761719 152.695312 81.402344 152.695312 L 92.277344 152.695312 C 92.90625 152.695312 93.589844 152.75 94.164062 152.921875 C 96.925781 153.746094 99.019531 156.367188 99.019531 159.515625 Z M 99.019531 159.515625 "/></g></g><g clip-rule="nonzero" clip-path="url(#clip41)"><g clip-rule="nonzero" clip-path="url(#clip42)"><path style=" stroke:none;fill-rule:nonzero;fill:rgb(9.01947%,12.159729%,23.919678%);fill-opacity:1;" d="M 99.019531 159.515625 L 99.019531 169.921875 C 97.597656 169.339844 95.492188 168.617188 93.847656 167.765625 C 92.289062 166.828125 90.769531 165.761719 89.402344 164.539062 C 88.761719 163.835938 88.144531 163.09375 87.605469 162.296875 C 87.382812 161.84375 87.171875 161.378906 87 160.902344 C 86.976562 160.792969 86.953125 160.6875 86.933594 160.578125 C 86.867188 160.167969 86.765625 159.761719 86.640625 159.363281 C 89.695312 156.339844 92.214844 154.242188 94.164062 152.886719 C 96.925781 153.710938 99.019531 156.367188 99.019531 159.515625 Z M 99.019531 159.515625 "/></g></g><g clip-rule="nonzero" clip-path="url(#clip43)"><g clip-rule="nonzero" clip-path="url(#clip44)"><path style=" stroke:none;fill-rule:nonzero;fill:rgb(92.549133%,53.329468%,44.709778%);fill-opacity:1;" d="M 101.574219 140.332031 C 97.578125 137.03125 90.742188 124.683594 85.210938 132.449219 C 83.808594 134.417969 82.582031 141.121094 82.144531 143.773438 C 81.472656 147.867188 81.699219 152.179688 82.894531 156.21875 C 83.492188 158.222656 84.34375 160.210938 85.761719 161.679688 C 87.996094 164 91.332031 164.671875 94.324219 164.210938 C 103.082031 162.867188 108.921875 156.695312 104.167969 146.945312 C 103.699219 145.984375 103.136719 145.042969 102.964844 143.984375 C 102.886719 143.5 102.941406 143.046875 103.066406 142.613281 C 103.253906 141.945312 103.003906 141.203125 102.410156 140.886719 C 102.121094 140.730469 101.835938 140.546875 101.574219 140.332031 Z M 101.574219 140.332031 "/></g></g><g clip-rule="nonzero" clip-path="url(#clip45)"><g clip-rule="nonzero" clip-path="url(#clip46)"><path style=" stroke:none;fill-rule:nonzero;fill:rgb(8.239746%,0%,46.669006%);fill-opacity:1;" d="M 76.949219 169.164062 C 77.1875 169.085938 77.421875 168.988281 77.660156 168.875 C 81.484375 167.003906 83.019531 163.597656 84.945312 159.96875 C 85.832031 158.300781 87.128906 156.789062 88.546875 155.605469 C 89.007812 155.21875 89.496094 154.871094 89.992188 154.546875 C 90.019531 154.242188 90.035156 153.945312 90.042969 153.65625 C 90.183594 148.480469 87.082031 144.140625 86.660156 139.015625 C 86.34375 135.332031 87.207031 133.34375 89.679688 130.898438 C 89.921875 130.65625 90.175781 130.398438 90.273438 130.0625 C 90.429688 129.507812 90.140625 129.03125 89.617188 128.625 C 88.21875 127.539062 85.128906 126.976562 84.269531 126.902344 C 81.738281 126.683594 79.195312 127.300781 76.886719 128.355469 C 72.414062 130.402344 68.292969 134.238281 66.257812 138.929688 C 62.683594 147.164062 60.769531 157.890625 67.457031 164.894531 C 69.886719 167.433594 73.390625 170.34375 76.949219 169.164062 Z M 76.949219 169.164062 "/></g></g><g clip-rule="nonzero" clip-path="url(#clip47)"><g clip-rule="nonzero" clip-path="url(#clip48)"><path style=" stroke:none;fill-rule:nonzero;fill:rgb(8.239746%,12.548828%,23.919678%);fill-opacity:1;" d="M 101.199219 150.144531 C 100.824219 150.304688 100.429688 150.375 100.03125 150.34375 C 99.097656 150.273438 98.320312 149.652344 97.957031 148.679688 L 98.890625 148.300781 C 99.113281 148.894531 99.554688 149.257812 100.105469 149.300781 C 100.808594 149.351562 101.53125 148.867188 101.992188 148.03125 L 102.859375 148.550781 C 102.445312 149.3125 101.855469 149.863281 101.199219 150.144531 Z M 101.199219 150.144531 "/></g></g><g clip-rule="nonzero" clip-path="url(#clip49)"><g clip-rule="nonzero" clip-path="url(#clip50)"><path style=" stroke:none;fill-rule:nonzero;fill:rgb(92.549133%,53.329468%,44.709778%);fill-opacity:1;" d="M 81.25 153.847656 C 82.320312 156.582031 85.304688 157.890625 87.917969 156.773438 C 90.53125 155.65625 91.785156 152.535156 90.714844 149.800781 C 89.648438 147.070312 86.664062 145.757812 84.046875 146.875 C 81.433594 147.992188 80.179688 151.113281 81.25 153.847656 Z M 81.25 153.847656 "/></g></g><g clip-rule="nonzero" clip-path="url(#clip51)"><g clip-rule="nonzero" clip-path="url(#clip52)"><path style=" stroke:none;fill-rule:nonzero;fill:rgb(8.239746%,12.548828%,23.919678%);fill-opacity:1;" d="M 97.835938 142.546875 C 97.628906 142.902344 97.347656 143.191406 97.011719 143.382812 C 96.523438 143.664062 95.976562 143.699219 95.480469 143.496094 C 95.238281 143.398438 95.148438 143.089844 95.296875 142.871094 L 95.308594 142.855469 C 95.414062 142.699219 95.609375 142.652344 95.78125 142.71875 C 96.066406 142.835938 96.371094 142.8125 96.652344 142.65625 C 97.007812 142.449219 97.382812 141.972656 97.457031 141.210938 C 97.476562 141.007812 97.636719 140.855469 97.828125 140.847656 C 98.070312 140.835938 98.265625 141.054688 98.238281 141.304688 C 98.183594 141.765625 98.046875 142.191406 97.835938 142.546875 Z M 97.835938 142.546875 "/></g></g><g clip-rule="nonzero" clip-path="url(#clip53)"><g clip-rule="nonzero" clip-path="url(#clip54)"><path style=" stroke:none;fill-rule:nonzero;fill:rgb(9.01947%,12.159729%,23.919678%);fill-opacity:1;" d="M 86.875 153.363281 C 87.0625 151.910156 85.855469 149.941406 84.304688 150.472656 C 83.703125 150.675781 83.433594 149.691406 84.03125 149.488281 C 86.355469 148.699219 88.105469 151.4375 87.820312 153.613281 C 87.734375 154.261719 86.789062 154.007812 86.875 153.363281 Z M 86.875 153.363281 "/></g></g><g clip-rule="nonzero" clip-path="url(#clip55)"><g clip-rule="nonzero" clip-path="url(#clip56)"><path style=" stroke:none;fill-rule:nonzero;fill:rgb(27.839661%,43.139648%,99.609375%);fill-opacity:1;" d="M 313.910156 98.472656 C 313.84375 98.503906 313.777344 98.53125 313.710938 98.558594 C 313.648438 98.582031 313.585938 98.605469 313.527344 98.628906 C 312.972656 98.832031 312.367188 98.953125 311.742188 98.988281 C 311.398438 99.007812 311.050781 99 310.699219 98.964844 C 310.257812 98.921875 309.816406 98.832031 309.382812 98.699219 C 308.824219 98.53125 308.273438 98.28125 307.761719 97.949219 C 307.636719 97.871094 307.515625 97.785156 307.394531 97.695312 C 307.25 97.585938 307.101562 97.476562 306.960938 97.363281 C 306.699219 97.15625 306.445312 96.945312 306.207031 96.710938 C 306.082031 96.738281 305.960938 96.765625 305.839844 96.796875 C 305.386719 96.914062 304.953125 97.074219 304.550781 97.292969 C 303.480469 97.484375 302.144531 97.726562 302.144531 97.734375 C 301.992188 97.726562 301.839844 97.726562 301.6875 97.726562 C 301.449219 97.726562 301.210938 97.726562 300.972656 97.71875 C 300.9375 97.71875 300.902344 97.71875 300.867188 97.71875 C 300.699219 97.707031 300.53125 97.699219 300.359375 97.691406 C 300.152344 97.675781 299.941406 97.664062 299.730469 97.644531 C 298.710938 97.5625 297.679688 97.429688 296.683594 97.214844 C 296.640625 97.066406 296.597656 96.917969 296.550781 96.769531 C 296.484375 96.542969 296.410156 96.316406 296.335938 96.09375 C 294.207031 89.953125 289.800781 90.578125 285.039062 91.113281 C 285.015625 91.117188 284.988281 91.121094 284.960938 91.125 C 283.507812 91.289062 282.027344 91.441406 280.566406 91.386719 C 279.957031 91.367188 279.351562 91.308594 278.757812 91.203125 C 278.265625 91.113281 277.796875 90.984375 277.351562 90.816406 C 276.28125 90.417969 275.351562 89.808594 274.558594 89.042969 C 273.394531 87.917969 272.53125 86.464844 271.972656 84.859375 C 271.90625 84.660156 271.839844 84.457031 271.78125 84.253906 C 271.296875 82.597656 271.125 80.808594 271.277344 79.074219 C 271.390625 77.785156 271.6875 76.523438 272.167969 75.371094 C 275.152344 68.195312 284.082031 66.976562 290.480469 66.484375 C 294.542969 66.167969 298.667969 65.859375 302.65625 66.746094 C 306.640625 67.628906 310.535156 69.886719 312.535156 73.597656 C 313.65625 75.683594 314.109375 78.210938 314.148438 80.65625 C 314.160156 81.40625 314.132812 82.148438 314.074219 82.867188 C 313.992188 83.902344 313.925781 85.191406 313.976562 86.503906 C 314.046875 88.429688 314.367188 90.402344 315.242188 91.703125 C 315.945312 92.746094 316.296875 93.710938 316.375 94.566406 C 316.542969 96.402344 315.472656 97.773438 313.910156 98.472656 Z M 313.910156 98.472656 "/></g></g><g clip-rule="nonzero" clip-path="url(#clip57)"><g clip-rule="nonzero" clip-path="url(#clip58)"><path style=" stroke:none;fill-rule:nonzero;fill:rgb(27.839661%,43.139648%,99.609375%);fill-opacity:1;" d="M 305.617188 97.105469 C 305.382812 97.144531 304.988281 97.214844 304.550781 97.292969 C 304.484375 97.328125 304.417969 97.363281 304.351562 97.402344 C 304.734375 97.324219 305.203125 97.207031 305.617188 97.105469 Z M 305.617188 97.105469 "/></g></g><g clip-rule="nonzero" clip-path="url(#clip59)"><g clip-rule="nonzero" clip-path="url(#clip60)"><path style=" stroke:none;fill-rule:nonzero;fill:rgb(8.239746%,0%,46.669006%);fill-opacity:1;" d="M 275.769531 81.988281 C 275.828125 82.171875 275.882812 82.359375 275.941406 82.542969 C 276.203125 83.351562 276.503906 84.140625 276.839844 84.917969 C 277.191406 85.339844 277.5625 85.75 277.941406 86.152344 C 278.007812 85.847656 278.078125 85.542969 278.160156 85.242188 C 278.289062 84.769531 278.972656 83.53125 279.160156 82.777344 C 277.996094 82.546875 276.847656 82.222656 275.726562 81.816406 C 275.742188 81.871094 275.757812 81.929688 275.769531 81.988281 Z M 275.769531 81.988281 "/></g></g><g clip-rule="nonzero" clip-path="url(#clip61)"><g clip-rule="nonzero" clip-path="url(#clip62)"><path style=" stroke:none;fill-rule:nonzero;fill:rgb(95.689392%,60.389709%,47.839355%);fill-opacity:1;" d="M 308.191406 89.800781 L 308.191406 127.6875 C 308.191406 136.832031 302.144531 144.179688 293.414062 144.179688 L 293.394531 144.179688 C 284.664062 144.179688 276.886719 139.71875 276.886719 130.574219 L 276.886719 89.800781 C 276.886719 80.675781 284.664062 73.21875 293.394531 73.21875 L 293.414062 73.21875 C 302.144531 73.21875 308.191406 80.675781 308.191406 89.800781 Z M 308.191406 89.800781 "/></g></g><g clip-rule="nonzero" clip-path="url(#clip63)"><g clip-rule="nonzero" clip-path="url(#clip64)"><path style=" stroke:none;fill-rule:nonzero;fill:rgb(27.839661%,43.139648%,99.609375%);fill-opacity:1;" d="M 275.328125 82.324219 C 275.347656 82.382812 275.328125 82.265625 275.328125 82.324219 C 280.746094 82.820312 286.429688 83.128906 290.453125 83.199219 C 293.097656 83.242188 295.417969 85.046875 296.238281 87.679688 C 298.070312 93.601562 301.902344 93.589844 305.882812 94.894531 C 310.371094 96.339844 315.007812 94.152344 314.109375 88.25 C 313.605469 84.867188 311.191406 80.214844 308.652344 78.105469 C 304.445312 74.605469 299.398438 72.085938 294.050781 71.460938 C 288.722656 70.851562 283.078125 72.261719 278.945312 75.855469 C 277.246094 77.324219 274.621094 80.152344 275.328125 82.324219 Z M 275.328125 82.324219 "/></g></g><g clip-rule="nonzero" clip-path="url(#clip65)"><g clip-rule="nonzero" clip-path="url(#clip66)"><path style=" stroke:none;fill-rule:nonzero;fill:rgb(8.239746%,0%,46.669006%);fill-opacity:1;" d="M 291.566406 93.792969 C 290.941406 93.792969 290.429688 93.257812 290.429688 92.605469 C 290.429688 91.949219 290.941406 91.414062 291.566406 91.414062 C 292.195312 91.414062 292.707031 91.949219 292.707031 92.605469 C 292.707031 93.257812 292.195312 93.792969 291.566406 93.792969 Z M 291.566406 93.792969 "/></g></g><g clip-rule="nonzero" clip-path="url(#clip67)"><g clip-rule="nonzero" clip-path="url(#clip68)"><path style=" stroke:none;fill-rule:nonzero;fill:rgb(8.239746%,0%,46.669006%);fill-opacity:1;" d="M 286.46875 103.949219 C 286.898438 103.949219 287.304688 103.839844 287.660156 103.621094 C 288.335938 103.207031 288.699219 102.457031 288.640625 101.613281 L 287.785156 101.679688 C 287.820312 102.179688 287.617188 102.609375 287.226562 102.851562 C 286.796875 103.117188 286.039062 103.195312 285.207031 102.625 L 284.738281 103.375 C 285.292969 103.753906 285.898438 103.949219 286.46875 103.949219 Z M 286.46875 103.949219 "/></g></g><g clip-rule="nonzero" clip-path="url(#clip69)"><g clip-rule="nonzero" clip-path="url(#clip70)"><path style=" stroke:none;fill-rule:nonzero;fill:rgb(8.239746%,0%,46.669006%);fill-opacity:1;" d="M 284.957031 98.617188 L 287.007812 98.617188 L 287.007812 97.722656 L 285.816406 97.722656 L 285.816406 91.113281 L 284.957031 91.113281 Z M 284.957031 98.617188 "/></g></g><g clip-rule="nonzero" clip-path="url(#clip71)"><g clip-rule="nonzero" clip-path="url(#clip72)"><path style=" stroke:none;fill-rule:nonzero;fill:rgb(8.239746%,0%,46.669006%);fill-opacity:1;" d="M 281.476562 94.085938 C 280.851562 94.085938 280.335938 93.550781 280.335938 92.894531 C 280.335938 92.242188 280.847656 91.707031 281.476562 91.707031 C 282.101562 91.707031 282.617188 92.242188 282.617188 92.894531 C 282.617188 93.550781 282.101562 94.085938 281.476562 94.085938 Z M 281.476562 94.085938 "/></g></g><g clip-rule="nonzero" clip-path="url(#clip73)"><g clip-rule="nonzero" clip-path="url(#clip74)"><path style=" stroke:none;fill-rule:nonzero;fill:rgb(8.239746%,12.548828%,23.919678%);fill-opacity:1;" d="M 276.886719 105.933594 L 276.886719 127.6875 L 291.410156 118.074219 C 277.871094 115.355469 278.308594 107.511719 276.886719 105.933594 Z M 276.886719 105.933594 "/></g></g><g clip-rule="nonzero" clip-path="url(#clip75)"><g clip-rule="nonzero" clip-path="url(#clip76)"><path style=" stroke:none;fill-rule:nonzero;fill:rgb(8.239746%,0%,46.669006%);fill-opacity:1;" d="M 313.707031 98.484375 C 312.785156 99.265625 311.789062 99.433594 310.648438 99.433594 C 310.503906 99.433594 310.363281 99.421875 310.226562 99.402344 L 304.25 104.261719 L 304.25 106.691406 C 304.25 109.480469 306.414062 111.742188 309.082031 111.742188 C 311.75 111.742188 313.914062 109.484375 313.914062 106.691406 L 313.914062 98.296875 C 313.84375 98.363281 313.777344 98.425781 313.707031 98.484375 Z M 313.707031 98.484375 "/></g></g><g clip-rule="nonzero" clip-path="url(#clip77)"><g clip-rule="nonzero" clip-path="url(#clip78)"><path style=" stroke:none;fill-rule:nonzero;fill:rgb(100%,100%,100%);fill-opacity:1;" d="M 304.074219 108.238281 L 303.453125 107.359375 L 308.75 103.265625 C 309.878906 102.394531 310.585938 101.054688 310.691406 99.589844 C 310.792969 98.128906 310.285156 96.695312 309.292969 95.660156 C 308.328125 94.648438 307.050781 94.128906 305.683594 94.191406 C 304.324219 94.25 303.097656 94.882812 302.21875 95.96875 L 299.734375 99.46875 L 298.894531 98.820312 L 301.410156 95.277344 C 302.464844 93.96875 304.003906 93.175781 305.640625 93.101562 C 307.273438 93.03125 308.875 93.679688 310.03125 94.890625 C 311.238281 96.152344 311.859375 97.894531 311.730469 99.675781 C 311.605469 101.453125 310.746094 103.082031 309.371094 104.140625 Z M 304.074219 108.238281 "/></g></g><g clip-rule="nonzero" clip-path="url(#clip79)"><g clip-rule="nonzero" clip-path="url(#clip80)"><path style=" stroke:none;fill-rule:nonzero;fill:rgb(100%,100%,100%);fill-opacity:1;" d="M 300.289062 97.519531 L 286.332031 94.714844 L 278.261719 97.398438 C 278.003906 97.484375 277.175781 97.613281 276.96875 97.769531 L 276.96875 112.792969 C 276.96875 116.046875 279.5 119 282.445312 120.042969 C 282.53125 120.074219 282.621094 120.105469 282.710938 120.132812 C 286.246094 121.234375 290.003906 121.28125 293.566406 120.265625 C 296.425781 119.449219 298.996094 117.769531 300.945312 115.433594 L 304.527344 107.398438 Z M 300.289062 97.519531 "/></g></g><g clip-rule="nonzero" clip-path="url(#clip81)"><g clip-rule="nonzero" clip-path="url(#clip82)"><path style=" stroke:none;fill-rule:nonzero;fill:rgb(95.689392%,60.389709%,47.839355%);fill-opacity:1;" d="M 304.585938 104.6875 C 307.503906 106.449219 311.238281 105.40625 312.921875 102.351562 C 314.605469 99.300781 313.605469 95.398438 310.6875 93.636719 C 307.769531 91.875 304.035156 92.921875 302.351562 95.972656 C 300.667969 99.023438 301.667969 102.925781 304.585938 104.6875 Z M 304.585938 104.6875 "/></g></g><g clip-rule="nonzero" clip-path="url(#clip83)"><g clip-rule="nonzero" clip-path="url(#clip84)"><path style=" stroke:none;fill-rule:nonzero;fill:rgb(8.239746%,0%,46.669006%);fill-opacity:1;" d="M 306.898438 100.394531 C 306.710938 98.941406 307.917969 96.972656 309.46875 97.5 C 310.070312 97.707031 310.335938 96.722656 309.738281 96.519531 C 307.417969 95.730469 305.667969 98.46875 305.953125 100.644531 C 306.039062 101.292969 306.984375 101.039062 306.898438 100.394531 Z M 306.898438 100.394531 "/></g></g><g clip-rule="nonzero" clip-path="url(#clip85)"><g clip-rule="nonzero" clip-path="url(#clip86)"><path style=" stroke:none;fill-rule:nonzero;fill:rgb(100%,100%,100%);fill-opacity:0.6078;" d="M 307.363281 85.144531 L 302.910156 119.203125 C 302.410156 123.046875 299.890625 126.015625 296.574219 127.085938 C 296.574219 127.085938 296.570312 127.085938 296.570312 127.085938 C 295.484375 127.433594 294.3125 127.582031 293.097656 127.488281 L 292.730469 127.460938 L 289.046875 127.171875 L 279.03125 126.390625 L 277.800781 126.296875 C 276.003906 126.15625 274.335938 125.511719 272.921875 124.507812 C 269.867188 122.339844 267.984375 118.5 268.433594 114.460938 L 272.132812 81.109375 L 274.910156 81.425781 L 280.972656 82.121094 L 291.964844 83.378906 L 297.089844 83.964844 L 299.425781 84.234375 L 300.824219 84.394531 Z M 307.363281 85.144531 "/></g></g><g clip-rule="nonzero" clip-path="url(#clip87)"><g clip-rule="nonzero" clip-path="url(#clip88)"><path style=" stroke:none;fill-rule:nonzero;fill:rgb(100%,100%,100%);fill-opacity:0.4784;" d="M 300.824219 84.394531 L 296.566406 127.085938 C 295.484375 127.433594 294.308594 127.582031 293.097656 127.488281 L 292.730469 127.460938 L 297.089844 83.964844 L 299.425781 84.234375 Z M 300.824219 84.394531 "/></g></g><g clip-rule="nonzero" clip-path="url(#clip89)"><g clip-rule="nonzero" clip-path="url(#clip90)"><path style=" stroke:none;fill-rule:nonzero;fill:rgb(23.529053%,66.268921%,88.238525%);fill-opacity:1;" d="M 314.074219 82.867188 C 313.988281 83.902344 313.921875 85.191406 313.972656 86.503906 L 313.714844 86.492188 L 309.023438 86.308594 L 307.222656 86.238281 L 295.289062 85.773438 L 280.835938 85.207031 L 278.207031 85.101562 L 278.019531 85.09375 L 276.953125 85.050781 L 274.746094 84.964844 L 271.972656 84.859375 L 271.714844 84.847656 L 270.929688 84.839844 C 270.617188 84.828125 269.773438 84.65625 269.773438 84.449219 L 269.773438 79.421875 C 269.773438 79.273438 270.496094 79.144531 270.683594 79.078125 C 270.777344 79.042969 271.183594 79.023438 271.296875 79.03125 L 275.847656 79.199219 L 280.878906 79.386719 L 306.484375 80.363281 L 310.796875 80.527344 L 314.136719 80.65625 C 314.148438 81.40625 314.132812 82.148438 314.074219 82.867188 Z M 314.074219 82.867188 "/></g></g><g clip-rule="nonzero" clip-path="url(#clip91)"><g clip-rule="nonzero" clip-path="url(#clip92)"><path style=" stroke:none;fill-rule:nonzero;fill:rgb(100%,100%,100%);fill-opacity:1;" d="M 110.988281 145.636719 C 110.214844 145.472656 109.476562 145.148438 108.722656 144.914062 C 107.902344 144.65625 106.519531 144.136719 105.960938 145.140625 C 105.796875 145.4375 105.78125 145.84375 105.960938 146.140625 C 107.179688 148.160156 111.855469 148.074219 113.851562 148.164062 C 113.996094 148.171875 114.140625 148.175781 114.277344 148.121094 C 116.207031 147.304688 111.28125 145.699219 110.988281 145.636719 Z M 110.988281 145.636719 "/></g></g><g clip-rule="nonzero" clip-path="url(#clip93)"><g clip-rule="nonzero" clip-path="url(#clip94)"><path style=" stroke:none;fill-rule:nonzero;fill:rgb(67.449951%,81.17981%,98.81897%);fill-opacity:0.5686;" d="M 232.777344 189.910156 L 232.777344 213.855469 C 228.507812 216.148438 227.402344 218.171875 225.832031 219.4375 Z M 232.777344 189.910156 "/></g></g><g clip-rule="nonzero" clip-path="url(#clip95)"><g clip-rule="nonzero" clip-path="url(#clip96)"><path style=" stroke:none;fill-rule:nonzero;fill:rgb(67.449951%,81.17981%,98.81897%);fill-opacity:1;" d="M 368.113281 226.046875 C 368.085938 225.945312 368.058594 225.847656 368.03125 225.75 C 367.9375 225.421875 367.621094 225.335938 367.347656 225.460938 C 366.671875 225.765625 366 225.597656 365.296875 225.640625 C 364.660156 225.683594 364.035156 225.859375 363.421875 226.023438 C 362.066406 226.382812 360.679688 226.65625 359.3125 226.960938 C 356.6875 227.542969 354.085938 228.257812 351.496094 229.003906 C 350.261719 229.359375 349.125 229.980469 347.972656 230.539062 C 346.652344 231.179688 345.28125 231.6875 343.890625 232.128906 C 341.25 232.964844 338.519531 233.492188 335.902344 234.398438 C 334.375 234.929688 332.902344 235.597656 331.316406 235.910156 C 330.65625 236.042969 329.972656 236.152344 329.359375 236.464844 C 328.792969 236.753906 328.398438 237.257812 327.75 237.359375 C 327.597656 237.382812 327.460938 237.550781 327.425781 237.699219 C 327.394531 237.832031 327.363281 237.96875 327.332031 238.101562 C 327.195312 238.710938 328.089844 238.96875 328.226562 238.359375 C 328.238281 238.316406 328.25 238.277344 328.257812 238.234375 C 328.609375 238.128906 328.898438 237.941406 329.214844 237.710938 C 329.773438 237.296875 330.347656 237.09375 331.019531 236.953125 C 332.40625 236.664062 333.703125 236.25 335.03125 235.746094 C 337.726562 234.722656 340.546875 234.144531 343.296875 233.324219 C 344.644531 232.921875 345.980469 232.46875 347.277344 231.90625 C 348.515625 231.375 349.691406 230.679688 350.949219 230.203125 C 352.246094 229.710938 353.628906 229.503906 354.949219 229.089844 C 356.304688 228.667969 357.636719 228.246094 359.03125 227.996094 C 360.527344 227.722656 362.058594 227.378906 363.53125 226.992188 C 364.335938 226.78125 365.101562 226.585938 365.9375 226.617188 C 366.429688 226.632812 366.863281 226.605469 367.304688 226.480469 C 367.585938 226.835938 368.261719 226.574219 368.113281 226.046875 Z M 368.113281 226.046875 "/></g></g><g clip-rule="nonzero" clip-path="url(#clip97)"><g clip-rule="nonzero" clip-path="url(#clip98)"><path style=" stroke:none;fill-rule:nonzero;fill:rgb(67.449951%,81.17981%,98.81897%);fill-opacity:1;" d="M 359.429688 227.234375 C 359.328125 227.78125 359.011719 226.726562 358.976562 226.574219 C 358.894531 226.210938 358.785156 225.886719 358.664062 225.535156 C 358.300781 224.476562 358.039062 223.378906 357.671875 222.3125 C 357.292969 221.222656 356.835938 220.144531 356.542969 219.023438 C 356.28125 218.015625 356.070312 217.023438 355.65625 216.0625 C 355.175781 214.953125 354.875 213.777344 354.433594 212.652344 C 354.003906 211.550781 353.433594 210.527344 353.015625 209.421875 C 352.699219 208.578125 352.359375 207.742188 352.09375 206.878906 C 351.863281 206.117188 351.445312 205.160156 351.550781 204.347656 C 351.621094 203.816406 350.847656 203.589844 350.777344 204.121094 C 350.652344 205.078125 350.996094 206.039062 351.269531 206.9375 C 351.601562 208.027344 352.015625 209.09375 352.429688 210.152344 C 352.941406 211.472656 353.625 212.695312 354.070312 214.046875 C 354.523438 215.425781 355.160156 216.75 355.503906 218.15625 C 356.175781 220.878906 357.21875 223.507812 358.046875 226.179688 C 358.246094 226.828125 358.242188 227.613281 358.8125 228.046875 C 359.449219 228.53125 360.050781 228.25 360.203125 227.457031 C 360.300781 226.929688 359.53125 226.703125 359.429688 227.234375 Z M 359.429688 227.234375 "/></g></g></g></svg>